<?xml version="1.0" encoding="utf-8"?>
<!-- Generator: Adobe Illustrator 16.0.0, SVG Export Plug-In . SVG Version: 6.00 Build 0)  -->
<!DOCTYPE svg PUBLIC "-//W3C//DTD SVG 1.1//EN" "http://www.w3.org/Graphics/SVG/1.1/DTD/svg11.dtd">
<svg version="1.1" id="Layer_1" xmlns="http://www.w3.org/2000/svg" xmlns:xlink="http://www.w3.org/1999/xlink" x="0px" y="0px"
	 width="130px" height="130px" viewBox="0 0 130 130" enable-background="new 0 0 130 130" xml:space="preserve">
<g>
	<g>
		<rect x="18.904" y="87.29" fill="#FFFFFF" width="17.963" height="4.307"/>
		<rect x="18.904" y="82.011" fill="#FFFFFF" width="17.963" height="4.304"/>
		<path fill="#FFFFFF" d="M24.673,45.294c-0.61,0.941-0.966,2.04-0.966,3.22c0,2.949,2.189,5.412,5.126,6.05
			c-2.937,0.681-5.126,3.308-5.126,6.45c0,3.241,2.326,5.934,5.399,6.511c-3.074,0.538-5.399,3.065-5.399,6.105
			c0,1.121,0.321,2.17,0.876,3.077h-5.679v4.306h17.963v-4.306h-0.779c0.553-0.908,0.874-1.957,0.874-3.077
			c0-3.04-2.327-5.567-5.4-6.105c3.073-0.577,5.4-3.27,5.4-6.511c0-3.142-2.191-5.769-5.128-6.45
			c2.938-0.638,5.128-3.102,5.128-6.05c0-1.18-0.358-2.279-0.968-3.22h0.873v-4.305H24.015v4.305H24.673z M32.839,74.201
			c0,1.383-1.122,2.506-2.506,2.506s-2.506-1.124-2.506-2.506c0-1.383,1.123-2.507,2.506-2.507
			C31.718,71.694,32.839,72.818,32.839,74.201z M32.839,61.014c0,1.386-1.122,2.507-2.506,2.507s-2.506-1.121-2.506-2.507
			c0-1.383,1.123-2.505,2.506-2.505C31.718,58.509,32.839,59.63,32.839,61.014z M32.839,48.172c0,1.383-1.122,2.506-2.506,2.506
			s-2.506-1.123-2.506-2.506s1.123-2.505,2.506-2.505C31.718,45.667,32.839,46.788,32.839,48.172z"/>
		<rect x="23.95" y="92.237" fill="#FFFFFF" width="13.152" height="4.438"/>
		<path fill="#FFFFFF" d="M18.904,23.534h5.679c-0.555,0.908-0.876,1.957-0.876,3.078c0,3.434,2.968,6.217,6.627,6.217
			s6.627-2.783,6.627-6.217c0-1.121-0.321-2.17-0.874-3.078h0.779v-4.306H18.904V23.534z M32.839,26.04
			c0,1.384-1.122,2.506-2.506,2.506s-2.506-1.123-2.506-2.506c0-1.383,1.123-2.506,2.506-2.506
			C31.718,23.534,32.839,24.657,32.839,26.04z"/>
		<path fill="#FFFFFF" d="M23.707,103.388c0,1.12,0.321,2.172,0.876,3.077h-5.679v4.307h17.963v-4.307h-0.779
			c0.553-0.906,0.874-1.958,0.874-3.077c0-3.434-2.968-6.217-6.627-6.217C26.674,97.171,23.707,99.954,23.707,103.388z
			 M32.839,103.959c0,1.385-1.122,2.506-2.506,2.506s-2.506-1.121-2.506-2.506c0-1.384,1.123-2.506,2.506-2.506
			C31.718,101.453,32.839,102.575,32.839,103.959z"/>
		<circle fill="#FFFFFF" cx="20.639" cy="94.565" r="2.457"/>
		<path fill="#FFFFFF" d="M25.09,35.809h-1.075v4.306h12.852v-4.306H29.89c-2.114-0.608-1.729-2.867-1.729-2.867H23.72
			C23.707,34.167,24.349,35.118,25.09,35.809z"/>
	</g>
	<g>
		<path fill="#FFFFFF" d="M80.323,43.567c-5.678,0-10.992,1.626-15.595,4.434V19.228H42.913v91.012h21.816v-3.95
			c4.603,2.804,9.917,4.429,15.595,4.429c17.395,0,31.494-15.031,31.494-33.578C111.817,58.598,97.717,43.567,80.323,43.567z
			 M77.428,89.84c-7.014,0-12.697-5.685-12.697-12.695c0-7.009,5.684-12.698,12.697-12.698c7.013,0,12.696,5.689,12.696,12.698
			C90.124,84.155,84.44,89.84,77.428,89.84z"/>
	</g>
</g>
</svg>
