<?xml version="1.0" encoding="utf-8"?>
<!-- Generator: Adobe Illustrator 16.0.0, SVG Export Plug-In . SVG Version: 6.00 Build 0)  -->
<!DOCTYPE svg PUBLIC "-//W3C//DTD SVG 1.1//EN" "http://www.w3.org/Graphics/SVG/1.1/DTD/svg11.dtd">
<svg version="1.1" id="Layer_1" xmlns="http://www.w3.org/2000/svg" xmlns:xlink="http://www.w3.org/1999/xlink" x="0px" y="0px"
	 width="141.5px" height="79.155px" viewBox="-11.5 0 141.5 79.155" enable-background="new -11.5 0 141.5 79.155"
	 xml:space="preserve">
<g>
	<rect x="111.635" y="63.225" fill="#FFFFFF" width="15.043" height="15.931"/>
	<path fill="#FFFFFF" d="M56.319,0.001v13.814h6.694V65.34h-6.694v13.814h27.298V65.342h-4.555V46.237h19.1l8.217-8.214v-2.179
		v-3.421V13.815v-1.991v-3.61L98.162,0L56.319,0.001L56.319,0.001z M90.322,32.423h-11.26V13.815h11.26V32.423z"/>
	<polygon fill="#FFFFFF" points="-1.942,13.815 3.697,13.815 3.697,65.342 -1.942,65.342 -1.942,79.155 50.033,79.155 
		50.033,70.973 50.033,65.342 50.033,55.477 35.223,55.477 35.223,65.342 19.752,65.342 19.752,46.237 31.489,46.237 31.489,32.423 
		19.752,32.423 19.752,13.815 35.223,13.815 35.223,22.403 50.033,22.403 50.033,13.815 50.033,6.908 50.033,0.001 -1.942,0.001 	
		"/>
</g>
</svg>
