<?xml version="1.0" encoding="utf-8"?>
<!-- Generator: Adobe Illustrator 16.0.0, SVG Export Plug-In . SVG Version: 6.00 Build 0)  -->
<!DOCTYPE svg PUBLIC "-//W3C//DTD SVG 1.1//EN" "http://www.w3.org/Graphics/SVG/1.1/DTD/svg11.dtd">
<svg version="1.1" id="Layer_1" xmlns="http://www.w3.org/2000/svg" xmlns:xlink="http://www.w3.org/1999/xlink" x="0px" y="0px"
	 width="130px" height="62.387px" viewBox="0 0 130 62.387" enable-background="new 0 0 130 62.387" xml:space="preserve">
<g>
	<path fill-rule="evenodd" clip-rule="evenodd" fill="#FFFFFF" d="M65.771,22.021l6.03-10.457l20.4-1.312l0.706-1.264l-18.864-1.32
		l4.409-7.664L113.451,0c10.758,0,18.712,3.844,15.622,15.162c-0.934,3.429-5.305,12.054-18.13,15.673
		c2.721,0.326,9.497,3.328,8.329,11.117c-2.068,13.813-19.957,20.39-29.9,20.394l-41.314,0.021l-2.041-7.998l21.646-1.517
		l0.732-1.269L44.924,50.15l-2.529-9.475l33.397-1.944l0.722-1.256l-59.992-3.783l2.874-4.995l64.579-4.19l0.729-1.256
		L65.771,22.021 M92.795,24.097l5.967-0.04c3.971-0.024,8.112-1.839,9.624-5.522c1.406-3.421-0.474-6.335-2.967-6.327l-5.771-0.004
		L92.795,24.097z M85.937,36.007l-7.181,12.457h6.839c3.169,0,8.854-1.586,10.605-6.102c1.618-4.19-1.364-6.363-3.439-6.355H85.937z
		 M33.825,55.229l-4.144,7.116L0,62.387l2.872-4.991L33.825,55.229z M35.92,0.004L59.782,0.02l1.803,6.766L33.048,4.995L35.92,0.004
		z M62.948,12.127l2.602,9.894L24.79,19.34l2.872-4.991L62.948,12.127z M42.177,40.692l-5.192,8.963L8.263,48.037l2.874-4.99
		L42.177,40.692z"/>
</g>
</svg>
