<?xml version="1.0" encoding="utf-8"?>
<!-- Generator: Adobe Illustrator 16.0.0, SVG Export Plug-In . SVG Version: 6.00 Build 0)  -->
<!DOCTYPE svg PUBLIC "-//W3C//DTD SVG 1.1//EN" "http://www.w3.org/Graphics/SVG/1.1/DTD/svg11.dtd">
<svg version="1.1" id="Layer_1" xmlns="http://www.w3.org/2000/svg" xmlns:xlink="http://www.w3.org/1999/xlink" x="0px" y="0px"
	 width="137.75px" height="97.099px" viewBox="-7.75 0 137.75 97.099" enable-background="new -7.75 0 137.75 97.099"
	 xml:space="preserve">
<path fill="#FFFFFF" d="M129.144,44.356c-0.548-0.986-2.104-1.027-2.798-0.138c-1.836,2.347-3.898,4.477-6.313,6.244
	c-0.622,0.455-1.228,0.934-1.864,1.367c-1.007,0.688-2.008,1.394-3.06,2.007c-0.896,0.524-1.956,0.804-2.776,1.414
	c-1.405,1.044-2.952,1.647-4.629,2.014c-0.283,0.061-0.61,0.099-0.823,0.267c-0.856,0.672-1.833,0.815-2.877,0.826
	c-0.438,0.004-0.898,0.095-1.308,0.254c-1.598,0.62-3.248,1.051-4.951,1.071c-2.398,0.03-4.809,0.037-7.195-0.175
	c-1.587-0.141-3.268-0.07-4.721-1c-0.262-0.167-0.655-0.162-0.99-0.173c-0.704-0.022-1.409,0.021-2.111-0.014
	c-0.354-0.019-0.809-0.032-1.031-0.244c-0.758-0.719-1.698-0.876-2.638-0.92c-1.14-0.052-1.587-0.935-1.654-1.741
	c-0.049-0.603,0.054-1.287,0.307-1.834c1.137-2.449,2.044-4.97,2.743-7.578c0.458-1.708,0.405-3.569,1.479-5.102
	c0.069-0.099,0.035-0.265,0.065-0.396c0.095-0.417,0.193-0.833,0.299-1.247c0.306-1.194,0.818-2.376,0.882-3.582
	c0.134-2.508,0.208-5.045-0.013-7.542c-0.411-4.67-1.928-8.962-4.996-12.624c-0.749-0.895-1.592-1.616-2.738-1.726
	c-1.48-0.142-2.978-0.138-4.468-0.128c-2.686,0.018-4.937,1.049-6.462,3.275c-0.888,1.295-1.552,2.754-2.224,4.184
	c-1.009,2.146-1.938,4.331-2.899,6.5c-0.045,0.102-0.082,0.209-0.122,0.314c-0.254,0.669-0.508,1.339-0.764,2.009
	c-0.217,0.567-0.631,1.139-0.612,1.696c0.029,0.865-0.304,1.578-0.567,2.331c-0.821,2.347-1.754,4.638-3.186,6.704
	c-0.34,0.491-0.664,0.612-1.103,0.362c-1.129-0.646-2.362-1.199-3.306-2.06c-1.045-0.952-2.25-1.586-3.39-2.357
	c-0.637-0.431-1.355-0.934-1.693-1.583c-1.236-2.379-3.022-4.122-5.325-5.474c-1.211-0.71-2.24-1.751-3.286-2.713
	c-0.391-0.359-0.52-1.011-1.27-0.851c-0.112,0.024-0.291-0.185-0.414-0.31c-0.912-0.935-1.743-1.967-2.743-2.794
	c-1.586-1.313-3.326-2.438-4.926-3.736c-5.219-4.228-10.404-8.497-15.598-12.753c-0.17-0.14-0.309-0.318-0.458-0.483
	c-0.309-0.343-0.569-0.748-0.93-1.02C9.103,4.462,8.438,4.132,8.408,3.265c-0.003-0.1-0.151-0.213-0.254-0.291
	C6.58,1.8,5.089,0.486,3.11,0H2.565C1.318,0.932,0.739,2.188,0.753,3.732c0.011,1.476,0.03,2.952,0.021,4.427
	C0.772,8.411,0.654,8.664,0.576,8.912c-0.104,0.331-0.34,0.669-0.311,0.985c0.164,1.823,0.389,3.64,0.595,5.458
	c0.178,1.575,0.241,3.173,0.564,4.717c0.437,2.095,0.968,4.184,1.658,6.208c0.493,1.444,1.404,2.741,1.967,4.168
	c0.575,1.457,1.725,2.663,1.862,4.306c0.008,0.104,0.084,0.21,0.147,0.303c0.472,0.703,1.188,1.278,1.139,2.251
	c-0.004,0.079,0.162,0.155,0.219,0.25c0.552,0.902,1.148,1.783,1.629,2.722c0.473,0.923,0.784,1.928,1.239,2.862
	c1.505,3.096,3.468,5.879,5.752,8.458c2.248,2.54,4.589,4.968,7.315,7c0.336,0.251,0.723,0.436,1.053,0.693
	c0.697,0.546,1.342,1.161,2.066,1.666c0.491,0.344,0.83,0.584,0.741,1.323c-0.404,3.338-1.183,6.663,0.049,10.04
	c0.362,0.992,0.454,2.133,0.803,3.176c0.348,1.041,0.613,2.109,0.958,3.15c0.199,0.6,0.565,1.148,0.716,1.758
	c0.375,1.512,0.973,2.893,1.924,4.143c2.365,3.109,4.717,6.23,7.771,8.721c2.745,2.238,5.777,3.738,9.445,3.512
	c0.112-0.008,0.251-0.031,0.335,0.02c1.104,0.691,1.842,0.053,2.636-0.637c0.569-0.494,1.221-0.934,1.906-1.244
	c1.249-0.568,2.606-0.912,3.815-1.549c1.762-0.926,3.407-2.072,5.148-3.041c2.018-1.121,3.953-2.316,5.585-3.994
	c1.045-1.074,2.519-1.725,3.146-3.213c1.889-1.451,2.883-3.512,3.836-5.607c0.445-0.982,0.951-1.938,1.45-2.945
	c2.406,1.125,4.866,1.672,7.416,1.82c0.281,0.016,0.658,0.055,0.836-0.098c1.027-0.877,2.029-0.615,3.088-0.08
	c0.842,0.426,1.719,0.781,2.59,1.148c0.436,0.182,0.983,0.207,1.319,0.494c0.679,0.578,1.446,0.516,2.097,0.26
	c1.787-0.699,3.539-1.5,5.267-2.34c1.907-0.928,3.731-2.033,5.662-2.908c5.438-2.465,10.662-5.305,15.609-8.652
	c1.61-1.09,3.228-2.19,4.1-3.985c1.189-2.449,2.254-4.96,3.367-7.447c0.034-0.077,0.014-0.179,0.025-0.269
	c0.175-1.302,0.388-2.599,0.518-3.904C129.773,47.165,129.896,45.709,129.144,44.356z M71.561,24.095
	c0.443-0.498,0.982-0.943,1.56-1.281c0.513-0.3,1.047,0.236,1.035,0.829c0.038,0.65,0.092,1.17,0.09,1.689
	c-0.001,0.533-0.188,0.94-0.763,1.146c-0.593,0.212-1.024,0.038-1.381-0.406c-0.238-0.299-0.505-0.617-0.609-0.972
	C71.398,24.79,71.378,24.298,71.561,24.095z M65.966,25.293c0.414-0.865,1.155-1.224,2.368-1.208
	c0.077,0.073,0.31,0.273,0.518,0.496c0.199,0.213,0.367,0.455,0.561,0.674c0.478,0.544,0.415,1.014-0.194,1.397
	c-0.953,0.598-2.631,0.278-3.213-0.651C65.892,25.822,65.875,25.484,65.966,25.293z M76.408,36.048
	c-0.733,0.698-1.817,1.034-3.539,1.272c-0.506-0.184-1.009-0.38-1.521-0.546c-0.232-0.074-0.483-0.107-0.729-0.125
	c-0.427-0.031-0.795-0.035-1.105-0.483c-0.226-0.326-0.766-0.415-1.107-0.684c-1.361-1.07-2.208-2.541-2.474-4.18
	c-0.133-0.822,0.394-1.795,0.784-2.625c0.087-0.187,0.854-0.113,1.289-0.045c0.163,0.025,0.334,0.36,0.4,0.584
	c0.243,0.824,0.371,1.687,0.673,2.486c0.674,1.778,2.038,2.364,3.948,2.426c0.983,0.032,1.246-0.389,1.119-1.391
	c-0.076-0.609-0.122-1.215,0.572-1.507c0.43-0.181,1.267,0.221,1.461,0.866c0.323,1.074,0.498,2.197,0.667,3.31
	C76.877,35.597,76.597,35.869,76.408,36.048z"/>
</svg>
