<?xml version="1.0" encoding="utf-8"?>
<!-- Generator: Adobe Illustrator 16.0.0, SVG Export Plug-In . SVG Version: 6.00 Build 0)  -->
<!DOCTYPE svg PUBLIC "-//W3C//DTD SVG 1.1//EN" "http://www.w3.org/Graphics/SVG/1.1/DTD/svg11.dtd">
<svg version="1.1" id="Layer_1" xmlns="http://www.w3.org/2000/svg" xmlns:xlink="http://www.w3.org/1999/xlink" x="0px" y="0px"
	 width="32px" height="224px" viewBox="0 0 32 224" enable-background="new 0 0 32 224" xml:space="preserve">
<g>
	<g>
		<path fill="#006633" d="M6.354,45.981H0v6.074h6.354V45.981z M26.065,112.399L0,118.088v6.176l26.065,5.525v1.894h5.511v-9.146
			h-5.511v1.229l-15.834-2.285l15.834-3.436v2.179h5.511v-9.146h-5.511V112.399z M26.065,65.43H5.513v-2.309H0v18.743l3.276,3.316
			h2.236v-0.076h20.553v0.076H28.3l3.276-3.316V63.121h-5.511V65.43z M26.065,78.622H5.513v-6.709h20.553V78.622z M26.065,206.37
			H5.513v-2.703H0v11.026h5.513v-1.84h7.62v7.712l3.276,3.316H28.3l3.276-3.316v-16.898h-5.511V206.37z M26.065,217.4h-7.423v-4.547
			h7.423V217.4z M3.276,180.64L0,183.957v13.567l3.276,3.317H28.3l3.276-3.317v-13.567L28.3,180.64H3.276z M26.065,194.359H5.513
			v-7.237h20.553V194.359z M26.065,26.347H5.513v-2.703H0v11.024h5.513V32.83h7.62v7.712l3.276,3.317H28.3l3.276-3.317V23.644
			h-5.511V26.347z M26.065,37.376h-7.423V32.83h7.423V37.376z M26.065,0.118v2.277H5.513V0.118H0v20.986h9.446v-5.979H5.513V8.878
			h7.62v4.739h5.51V8.878h7.423v6.247h-3.427v5.979h8.938V0.118H26.065z M26.065,89.712H5.513v-2.276H0v20.986h9.446v-5.98H5.513
			v-6.247h7.62v4.74h5.51v-4.74h7.423v6.247h-3.427v5.98h8.938V87.436h-5.511V89.712z M26.065,159.935H5.513v-2.897H0v21.606h3.266
			v0.002h6.181v-5.981H5.513v-6.246h20.553v2.186h5.511v-11.024h-5.511V159.935z M26.065,136.611H5.513v-2.276H0v20.986h9.446v-5.98
			H5.513v-6.247h7.62v4.74h5.51v-4.74h7.423v6.247h-3.427v5.98h8.938v-20.986h-5.511V136.611z"/>
	</g>
</g>
</svg>
