<?xml version="1.0" encoding="utf-8"?>
<!-- Generator: Adobe Illustrator 16.0.0, SVG Export Plug-In . SVG Version: 6.00 Build 0)  -->
<!DOCTYPE svg PUBLIC "-//W3C//DTD SVG 1.1//EN" "http://www.w3.org/Graphics/SVG/1.1/DTD/svg11.dtd">
<svg version="1.1" id="Layer_1" xmlns="http://www.w3.org/2000/svg" xmlns:xlink="http://www.w3.org/1999/xlink" x="0px" y="0px"
	 width="224px" height="32px" viewBox="0 0 224 32" enable-background="new 0 0 224 32" xml:space="preserve">
<g>
	<g>
		<path fill="#FFFFFF" d="M45.981,31.788h6.074v-6.354h-6.074V31.788z M122.537,5.723h1.229l-2.285,15.834l-3.436-15.834h2.179
			V0.212h-9.146v5.511h1.32l5.688,26.065h6.176l5.525-26.065h1.894V0.212h-9.146V5.723z M63.121,0.212v5.511h2.309v20.553h-2.309
			v5.513h18.743l3.316-3.276v-2.236h-0.076V5.723h0.076V3.488l-3.316-3.276H63.121z M78.622,26.275h-6.709V5.723h6.709V26.275z
			 M220.565,0.212h-16.898v5.511h2.703v20.553h-2.703v5.513h11.026v-5.513h-1.84v-7.62h7.712l3.316-3.276V3.488L220.565,0.212z
			 M217.4,13.146h-4.547V5.723h4.547V13.146z M183.957,0.212l-3.317,3.276v25.023l3.317,3.276h13.567l3.317-3.276V3.488
			l-3.317-3.276H183.957z M194.359,26.275h-7.237V5.723h7.237V26.275z M23.644,0.212v5.511h2.703v20.553h-2.703v5.513h11.024v-5.513
			H32.83v-7.62h7.712l3.317-3.276V3.488l-3.317-3.276H23.644z M37.376,13.146H32.83V5.723h4.546V13.146z M0.118,5.723h2.277v20.553
			H0.118v5.513h20.986v-9.446h-5.979v3.934H8.878v-7.62h4.739v-5.51H8.878V5.723h6.247v3.427h5.979V0.212H0.118V5.723z
			 M87.436,5.723h2.276v20.553h-2.276v5.513h20.986v-9.446h-5.98v3.934h-6.247v-7.62h4.74v-5.51h-4.74V5.723h6.247v3.427h5.98V0.212
			H87.436V5.723z M172.664,26.275h-6.246V5.723h2.186V0.212h-11.024v5.511h2.355v20.553h-2.897v5.513h21.606v-3.266h0.002v-6.181
			h-5.981V26.275z M134.335,5.723h2.276v20.553h-2.276v5.513h20.986v-9.446h-5.98v3.934h-6.247v-7.62h4.74v-5.51h-4.74V5.723h6.247
			v3.427h5.98V0.212h-20.986V5.723z"/>
	</g>
</g>
</svg>
