<?xml version="1.0" encoding="utf-8"?>
<!-- Generator: Adobe Illustrator 16.0.0, SVG Export Plug-In . SVG Version: 6.00 Build 0)  -->
<!DOCTYPE svg PUBLIC "-//W3C//DTD SVG 1.1//EN" "http://www.w3.org/Graphics/SVG/1.1/DTD/svg11.dtd">
<svg version="1.1" id="Layer_1" xmlns="http://www.w3.org/2000/svg" xmlns:xlink="http://www.w3.org/1999/xlink" x="0px" y="0px"
	 width="227px" height="47px" viewBox="0 0 227 47" enable-background="new 0 0 227 47" xml:space="preserve">
<g>
	<g>
		<path fill="#FFFFFF" d="M47.613,46.351H58.28v-44.5H47.613V46.351z M60.696,46.351h10.667v-44.5H60.696V46.351z M162.313,16.144
			c-2.328-1.509-5.051-2.394-7.975-2.394c-7.305,0-13.406,5.427-14.988,12.701c-1.686-7.274-8.193-12.701-15.979-12.701
			c-8.027,0-14.696,5.763-16.124,13.374c-1.339-7.611-7.595-13.374-15.124-13.374c-2.776,0-5.375,0.795-7.625,2.168V1.851H73.831
			v44.5h10.667v-1.933c2.25,1.372,4.849,2.167,7.625,2.167c7.529,0,13.785-5.763,15.124-13.377
			c1.428,7.614,8.097,13.377,16.124,13.377c7.785,0,14.293-5.427,15.979-12.702c1.582,7.275,7.684,12.702,14.988,12.702
			c2.924,0,5.646-0.886,7.975-2.395v2.16h10.668V14.517h-10.668V16.144z M90.707,36.375c-3.429,0-6.208-2.779-6.208-6.207
			c0-3.427,2.779-6.209,6.208-6.209s6.208,2.782,6.208,6.209C96.915,33.596,94.136,36.375,90.707,36.375z M123.371,36.375
			c-3.428,0-6.207-2.779-6.207-6.207c0-3.427,2.779-6.209,6.207-6.209c3.43,0,6.209,2.782,6.209,6.209
			C129.58,33.596,126.801,36.375,123.371,36.375z M155.188,36.375c-3.43,0-6.209-2.779-6.209-6.207c0-3.427,2.779-6.209,6.209-6.209
			c3.428,0,6.207,2.782,6.207,6.209C161.395,33.596,158.615,36.375,155.188,36.375z M35.029,46.934h11V14.35h-11V46.934z
			 M216.221,1.851v14.067c-2.25-1.373-4.85-2.168-7.625-2.168c-8.506,0-15.398,7.35-15.398,16.416
			c0,9.068,6.893,16.419,15.398,16.419c2.775,0,5.375-0.795,7.625-2.167v1.933h10.666v-44.5H216.221z M210.012,36.375
			c-3.43,0-6.209-2.779-6.209-6.207c0-3.427,2.779-6.209,6.209-6.209c3.428,0,6.207,2.782,6.207,6.209
			C216.219,33.596,213.439,36.375,210.012,36.375z M18.405,13.75c-2.776,0-5.375,0.795-7.625,2.168V1.851H0.113v44.5H10.78v-1.933
			c2.25,1.372,4.849,2.167,7.625,2.167c8.505,0,15.398-7.351,15.398-16.419C33.804,21.1,26.91,13.75,18.405,13.75z M16.989,36.375
			c-3.429,0-6.208-2.779-6.208-6.207c0-3.427,2.779-6.209,6.208-6.209s6.208,2.782,6.208,6.209
			C23.197,33.596,20.418,36.375,16.989,36.375z M40.262,0.066c-3.359,0-6.083,2.725-6.083,6.083c0,3.359,2.724,6.084,6.083,6.084
			s6.083-2.725,6.083-6.084C46.345,2.791,43.621,0.066,40.262,0.066z M185.813,17.176v-2.659h-10.666v31.834h10.666V29.069
			c1.504-5.234,7.102-4.285,7.102-4.285v-11C189.881,13.748,187.525,15.339,185.813,17.176z"/>
	</g>
</g>
</svg>
