<?xml version="1.0" encoding="utf-8"?>
<!-- Generator: Adobe Illustrator 16.0.0, SVG Export Plug-In . SVG Version: 6.00 Build 0)  -->
<!DOCTYPE svg PUBLIC "-//W3C//DTD SVG 1.1//EN" "http://www.w3.org/Graphics/SVG/1.1/DTD/svg11.dtd">
<svg version="1.1" id="Layer_1" xmlns="http://www.w3.org/2000/svg" xmlns:xlink="http://www.w3.org/1999/xlink" x="0px" y="0px"
	 width="460px" height="450px" viewBox="0 0 460 450" enable-background="new 0 0 460 450" xml:space="preserve">
<g>
	<g>
		<path fill="#FFFFFF" d="M91.72,334.637H3.427v21.183H91.72V334.637z M91.72,308.666H3.427v21.177H91.72V308.666z M91.72,282.584
			h-3.832c2.716-4.471,4.295-9.627,4.295-15.141c0-14.947-11.439-27.37-26.54-30.025c15.101-2.839,26.54-16.081,26.54-32.02
			c0-15.455-10.771-28.375-25.203-31.725c14.432-3.14,25.203-15.255,25.203-29.758c0-5.805-1.757-11.21-4.754-15.834h4.291v-21.178
			H28.551v21.178h3.236c-2.999,4.624-4.751,10.03-4.751,15.834c0,14.502,10.762,26.618,25.199,29.758
			c-14.438,3.35-25.199,16.27-25.199,31.725c0,15.938,11.43,29.181,26.537,32.02c-15.106,2.655-26.537,15.078-26.537,30.025
			c0,5.514,1.575,10.67,4.305,15.141H3.427v21.178H91.72V282.584z M47.289,142.233c0-6.809,5.519-12.328,12.322-12.328
			c6.802,0,12.316,5.519,12.316,12.328c0,6.805-5.514,12.323-12.316,12.323C52.808,154.556,47.289,149.038,47.289,142.233z
			 M47.289,205.399c0-6.807,5.519-12.325,12.322-12.325c6.802,0,12.316,5.519,12.316,12.325c0,6.809-5.514,12.328-12.316,12.328
			C52.808,217.727,47.289,212.208,47.289,205.399z M59.611,282.584c-6.803,0-12.322-5.521-12.322-12.33
			c0-6.805,5.519-12.322,12.322-12.322c6.802,0,12.316,5.517,12.316,12.322C71.927,277.063,66.413,282.584,59.611,282.584z
			 M28.229,380.802h64.647v-21.838H28.229V380.802z M27.036,36.188c0,16.888,14.583,30.577,32.575,30.577
			c17.99,0,32.573-13.689,32.573-30.577c0-5.511-1.579-10.669-4.295-15.137h3.832V-0.13H3.427v21.181h27.914
			C28.611,25.518,27.036,30.676,27.036,36.188z M59.611,21.053c6.802,0,12.316,5.519,12.316,12.323
			c0,6.809-5.514,12.327-12.316,12.327c-6.803,0-12.322-5.518-12.322-12.327C47.289,26.572,52.808,21.053,59.611,21.053z
			 M59.611,383.236c-17.992,0-32.575,13.687-32.575,30.573c0,5.518,1.575,10.676,4.305,15.142H3.427v21.179H91.72v-21.179h-3.832
			c2.716-4.466,4.295-9.624,4.295-15.142C92.184,396.923,77.601,383.236,59.611,383.236z M59.611,428.949
			c-6.803,0-12.322-5.518-12.322-12.328c0-6.804,5.519-12.327,12.322-12.327c6.802,0,12.316,5.523,12.316,12.327
			C71.927,423.432,66.413,428.949,59.611,428.949z M24.029,370.416c0-6.669-5.41-12.074-12.076-12.074
			c-6.66,0-12.07,5.405-12.07,12.074c0,6.668,5.41,12.077,12.07,12.077C18.619,382.493,24.029,377.084,24.029,370.416z
			 M28.551,102.602H91.72V81.424H57.427c-10.389-2.987-8.5-14.101-8.5-14.101H27.101c-0.069,6.025,3.089,10.7,6.733,14.101h-5.283
			V102.602z M305.321,119.581c-27.91,0-54.036,7.998-76.654,21.81V-0.13h-107.23v447.645h107.23v-19.43
			c22.619,13.791,48.745,21.788,76.654,21.788c85.496,0,154.796-73.934,154.796-165.155
			C460.117,193.514,390.817,119.581,305.321,119.581z M291.084,347.178c-34.466,0-62.403-27.96-62.403-62.44
			c0-34.482,27.937-62.46,62.403-62.46c34.472,0,62.409,27.978,62.409,62.46C353.494,319.218,325.556,347.178,291.084,347.178z"/>
	</g>
</g>
</svg>
