<?xml version="1.0" encoding="utf-8"?>
<!-- Generator: Adobe Illustrator 16.0.0, SVG Export Plug-In . SVG Version: 6.00 Build 0)  -->
<!DOCTYPE svg PUBLIC "-//W3C//DTD SVG 1.1//EN" "http://www.w3.org/Graphics/SVG/1.1/DTD/svg11.dtd">
<svg version="1.1" id="Layer_1" xmlns="http://www.w3.org/2000/svg" xmlns:xlink="http://www.w3.org/1999/xlink" x="0px" y="0px"
	 width="110px" height="110px" viewBox="0 0 110 110" enable-background="new 0 0 110 110" xml:space="preserve">
<g>
	<g>
		<path fill-rule="evenodd" clip-rule="evenodd" fill="#CF0A2C" d="M1.394,1.344c-1.789,1.791-1.792,4.694-0.003,6.483
			c1.792,1.794,4.692,1.791,6.481,0.001c1.789-1.791,1.792-4.694,0-6.488C6.083-0.449,3.183-0.446,1.394,1.344z M18.181,18.147
			c-1.789,1.791-1.792,4.693-0.004,6.483c1.792,1.794,4.693,1.79,6.482,0.001c1.789-1.791,1.792-4.695,0-6.488
			C22.87,16.354,19.97,16.357,18.181,18.147z M34.968,34.95c-1.789,1.79-1.792,4.693-0.004,6.482c1.792,1.794,4.692,1.791,6.481,0
			c1.789-1.79,1.791-4.693,0-6.486C39.657,33.156,36.757,33.159,34.968,34.95z M58.231,58.236c1.789-1.791,1.792-4.694,0-6.488
			c-1.787-1.789-4.688-1.786-6.477,0.004c-1.789,1.791-1.792,4.693-0.004,6.483C53.542,60.029,56.442,60.025,58.231,58.236z
			 M68.541,68.554c-1.789,1.79-1.792,4.694-0.003,6.483c1.791,1.792,4.692,1.79,6.481,0c1.789-1.791,1.791-4.693,0-6.487
			C73.23,66.761,70.33,66.763,68.541,68.554z M85.327,85.355c-1.789,1.791-1.791,4.694-0.004,6.483
			c1.793,1.795,4.692,1.792,6.481,0.002c1.79-1.791,1.793-4.694,0-6.489C90.017,83.563,87.117,83.566,85.327,85.355z
			 M102.115,102.159c-1.789,1.791-1.792,4.694-0.004,6.483c1.792,1.792,4.692,1.79,6.481,0c1.79-1.791,1.792-4.694,0-6.487
			C106.803,100.366,103.904,100.368,102.115,102.159z M105.364,62.448c2.53,0.002,4.582-2.052,4.584-4.588
			c-0.001-2.531-2.055-4.583-4.58-4.58c-2.531,0-4.586,2.049-4.586,4.583C100.785,60.403,102.833,62.449,105.364,62.448z
			 M105.362,77.048c-2.531,0-4.581,2.052-4.586,4.581c0.002,2.539,2.054,4.592,4.58,4.589c2.531,0,4.582-2.054,4.583-4.589
			C109.941,79.095,107.887,77.045,105.362,77.048z M57.859,100.827c-2.531,0-4.58,2.058-4.581,4.583c0,2.534,2.047,4.59,4.578,4.59
			c2.536-0.005,4.584-2.054,4.584-4.588C62.441,102.878,60.39,100.826,57.859,100.827z M81.604,100.819
			c-2.531,0.001-4.58,2.06-4.581,4.585c0,2.534,2.051,4.588,4.578,4.59c2.536-0.004,4.588-2.059,4.585-4.588
			C86.187,102.873,84.14,100.823,81.604,100.819z"/>
	</g>
</g>
</svg>
