<?xml version="1.0" encoding="utf-8"?>
<!-- Generator: Adobe Illustrator 16.0.0, SVG Export Plug-In . SVG Version: 6.00 Build 0)  -->
<!DOCTYPE svg PUBLIC "-//W3C//DTD SVG 1.1//EN" "http://www.w3.org/Graphics/SVG/1.1/DTD/svg11.dtd">
<svg version="1.1" id="Layer_1" xmlns="http://www.w3.org/2000/svg" xmlns:xlink="http://www.w3.org/1999/xlink" x="0px" y="0px"
	 width="238px" height="40.997px" viewBox="0 0 238 40.997" enable-background="new 0 0 238 40.997" xml:space="preserve">
<g>
	<g>
		<path fill-rule="evenodd" clip-rule="evenodd" fill="#0035A4" d="M39.101,0.012l-15.609-0.01l-1.881,3.279l18.67,1.179
			L39.101,0.012z M-0.006,40.997l19.416-0.023l2.712-4.676L1.875,37.72L-0.006,40.997z M41.17,7.972L18.089,9.431l-1.878,3.281
			l26.662,1.76L41.17,7.972z M5.4,31.569l18.789,1.063l3.396-5.892L7.28,28.29L5.4,31.569z M74.205,0L51.313,0.002l-2.887,5.036
			l12.341,0.869L60.305,6.74L46.958,7.597l-3.941,6.875l12.384,0.811l-0.478,0.824l-42.24,2.752l-1.878,3.281l39.238,2.487
			L49.57,25.45l-21.844,1.278l1.654,6.23l15.353,0.939l-0.48,0.833l-14.156,0.998l1.336,5.256l27.023-0.012
			c6.503-0.004,18.205-4.326,19.556-13.403c0.765-5.118-3.668-7.093-5.448-7.305c8.391-2.378,11.249-8.049,11.86-10.304
			C86.445,2.528,81.241,0,74.205,0z M62.919,27.837c-1.144,2.971-4.861,4.01-6.938,4.01h-4.471l4.693-8.184l4.468-0.004
			C62.027,23.657,63.977,25.085,62.919,27.837z M70.89,12.18c-0.987,2.421-3.696,3.613-6.295,3.631l-3.901,0.024l4.482-7.814
			l3.775,0.003C70.582,8.018,71.811,9.935,70.89,12.18z M94.975,24.437c-2.104,0-3.259,1.161-3.81,1.689v-1.21h-3.085v13.983h3.336
			v-6.65c0-1.183,0-2.645,0.6-3.499c0.604-0.935,1.678-1.235,2.28-1.235c2.811,0,2.811,3.324,2.811,4.485v6.899h3.336v-7.557
			c0-1.084,0-3.429-1.278-4.965C98.008,24.968,96.177,24.437,94.975,24.437z M108.606,24.366c-4.29,0-7.325,3.625-7.325,7.585
			c0,4.076,3.213,7.403,7.35,7.403c3.26,0,5.914-2.344,6.721-4.859h-3.513c-0.627,1.154-1.728,1.787-3.208,1.787
			c-2.382,0-3.688-1.969-3.84-2.875h10.809c0.101-0.451,0.201-1.029,0.201-1.684C115.8,28.194,113.021,24.366,108.606,24.366z
			 M104.693,30.713c0.626-2.596,2.708-3.274,3.938-3.274c1.657,0,3.385,1.031,3.761,3.274H104.693z M128.454,33.46h-0.049
			l-2.26-8.544h-2.658l-2.277,8.544h-0.055l-2.532-8.544h-3.559l5.015,13.983h2.055l2.632-9.068h0.052l2.609,9.068h2.055
			l5.09-13.983h-3.562L128.454,33.46z M148.698,24.437c-1.557,0-3.187,0.584-4.342,1.742v-5.92h-3.334v18.641h3.059v-1.687
			c0.832,0.931,2.006,2.142,4.688,2.142c5.094,0,6.926-4.713,6.926-7.508C155.694,28.142,152.929,24.437,148.698,24.437z
			 M148.342,36.282c-1.957,0-4.182-1.463-4.182-4.559c0-2.046,1.574-4.209,4.133-4.209c2.104,0,4.064,1.635,4.064,4.356
			S150.526,36.282,148.342,36.282z M168.196,26.683h-0.053c-0.094-0.203-1.775-2.246-4.61-2.246c-3.861,0-6.972,3.104-6.972,7.386
			c0,4.66,3.184,7.532,6.77,7.532c1.756,0,3.813-0.931,4.865-2.19v1.735h3.061V24.916h-3.061V26.683z M164.032,36.282
			c-2.376,0-4.135-1.941-4.135-4.313c0-2.087,1.404-4.455,4.135-4.455c1.984,0,4.069,1.46,4.069,4.356
			C168.101,34.467,166.342,36.282,164.032,36.282z M173.03,38.899h3.332V20.259h-3.332V38.899z M189,26.683h-0.049
			c-0.098-0.203-1.782-2.246-4.617-2.246c-3.861,0-6.968,3.104-6.968,7.386c0,4.66,3.186,7.532,6.77,7.532
			c1.755,0,3.81-0.931,4.864-2.19v1.735h3.062V24.916H189V26.683z M184.838,36.282c-2.382,0-4.137-1.941-4.137-4.313
			c0-2.087,1.403-4.455,4.137-4.455c1.981,0,4.061,1.46,4.061,4.356C188.899,34.467,187.143,36.282,184.838,36.282z M200.732,24.437
			c-2.11,0-3.263,1.161-3.815,1.689v-1.21h-3.083v13.983h3.336v-6.65c0-1.183,0-2.645,0.6-3.499
			c0.603-0.935,1.682-1.235,2.281-1.235c2.81,0,2.81,3.324,2.81,4.485v6.899h3.333v-7.557c0-1.084,0-3.429-1.274-4.965
			C203.762,24.968,201.93,24.437,200.732,24.437z M214.809,27.515c2.055,0,2.834,1.333,3.234,2.04h3.762
			c-1.428-4.307-5.241-5.118-6.996-5.118c-3.834,0-7.372,3.127-7.372,7.41c0,4.636,3.837,7.508,7.396,7.508
			c3.259,0,5.843-1.893,6.972-5.014h-3.762c-0.877,1.41-1.98,1.941-3.088,1.941c-2.504,0-4.186-1.994-4.186-4.387
			C210.77,29.026,212.776,27.515,214.809,27.515z M232.879,34.495c-0.627,1.154-1.734,1.787-3.213,1.787
			c-2.383,0-3.686-1.969-3.838-2.875h10.809c0.101-0.451,0.202-1.029,0.202-1.684c0-3.529-2.782-7.357-7.198-7.357
			c-4.289,0-7.319,3.625-7.319,7.585c0,4.076,3.204,7.403,7.345,7.403c3.262,0,5.919-2.344,6.723-4.859H232.879z M229.667,27.438
			c1.654,0,3.385,1.031,3.76,3.274h-7.695C226.354,28.117,228.434,27.438,229.667,27.438z M237.457,37.653
			c0-0.229-0.132-0.332-0.403-0.332h-0.446v1.16h0.181v-0.506h0.195l0.309,0.506h0.192l-0.329-0.51
			C237.332,37.954,237.457,37.861,237.457,37.653z M236.788,37.83v-0.362h0.238c0.205,0,0.254,0.062,0.254,0.172
			c0,0.129-0.064,0.19-0.281,0.19H236.788z M236.999,36.896c-0.551,0-1.013,0.425-1.013,0.999c0,0.586,0.462,1.01,1.013,1.01
			c0.544,0,1.008-0.424,1.008-1.01C238.006,37.321,237.542,36.896,236.999,36.896z M236.999,38.74c-0.459,0-0.816-0.351-0.816-0.845
			c0-0.477,0.357-0.832,0.816-0.832c0.458,0,0.816,0.355,0.816,0.832C237.815,38.39,237.457,38.74,236.999,38.74z"/>
	</g>
</g>
</svg>
