<?xml version="1.0" encoding="utf-8"?>
<!-- Generator: Adobe Illustrator 16.0.0, SVG Export Plug-In . SVG Version: 6.00 Build 0)  -->
<!DOCTYPE svg PUBLIC "-//W3C//DTD SVG 1.1//EN" "http://www.w3.org/Graphics/SVG/1.1/DTD/svg11.dtd">
<svg version="1.1" id="Layer_1" xmlns="http://www.w3.org/2000/svg" xmlns:xlink="http://www.w3.org/1999/xlink" x="0px" y="0px"
	 width="72px" height="35px" viewBox="0 0 72 35" enable-background="new 0 0 72 35" xml:space="preserve">
<g>
	<g>
		<g>
			<path fill-rule="evenodd" clip-rule="evenodd" fill="#CF0A2C" d="M36.499,12.408l3.346-5.803l11.32-0.728l0.393-0.7L41.089,4.444
				l2.447-4.253l19.423-0.002c5.97,0,10.383,2.133,8.668,8.413c-0.518,1.903-2.943,6.69-10.062,8.698
				c1.512,0.181,5.272,1.848,4.623,6.17c-1.148,7.665-11.075,11.314-16.593,11.317l-22.926,0.011l-1.133-4.438l12.012-0.842
				l0.407-0.704L24.93,28.02l-1.403-5.258l18.533-1.078l0.4-0.697l-33.29-2.1l1.594-2.772L46.6,13.789l0.405-0.696L36.499,12.408
				 M51.494,13.563l3.313-0.023c2.203-0.014,4.502-1.021,5.34-3.064c0.781-1.898-0.262-3.516-1.646-3.512l-3.203-0.002
				L51.494,13.563z M47.688,20.171l-3.984,6.913h3.795c1.76,0,4.914-0.88,5.886-3.387c0.897-2.324-0.758-3.53-1.909-3.526H47.688z
				 M18.771,30.839l-2.3,3.949L0,34.811l1.594-2.77L18.771,30.839z M19.934,0.191L33.175,0.2l1,3.755L18.34,2.961L19.934,0.191z
				 M34.933,6.92l1.443,5.488l-22.62-1.486l1.594-2.77L34.933,6.92z M23.406,22.771l-2.882,4.975L4.586,26.848l1.595-2.77
				L23.406,22.771z"/>
		</g>
	</g>
</g>
</svg>
