<?xml version="1.0" encoding="utf-8"?>
<!-- Generator: Adobe Illustrator 16.0.0, SVG Export Plug-In . SVG Version: 6.00 Build 0)  -->
<!DOCTYPE svg PUBLIC "-//W3C//DTD SVG 1.1//EN" "http://www.w3.org/Graphics/SVG/1.1/DTD/svg11.dtd">
<svg version="1.1" id="Layer_1" xmlns="http://www.w3.org/2000/svg" xmlns:xlink="http://www.w3.org/1999/xlink" x="0px" y="0px"
	 width="100px" height="100px" viewBox="0 0 100 100" enable-background="new 0 0 100 100" xml:space="preserve">
<g>
	<circle fill-rule="evenodd" clip-rule="evenodd" cx="50" cy="49.999" r="50"/>
	<g>
		<path fill-rule="evenodd" clip-rule="evenodd" fill="#0035A4" d="M50.497,44.926l3.334-5.783l11.282-0.726l0.391-0.698
			l-10.433-0.73l2.438-4.238l19.356-0.002c5.949,0,10.349,2.125,8.64,8.385c-0.517,1.896-2.934,6.667-10.027,8.668
			c1.505,0.181,5.253,1.843,4.607,6.149c-1.145,7.64-11.038,11.277-16.537,11.279L40.7,67.24l-1.129-4.423l11.972-0.839l0.405-0.701
			l-12.981-0.793l-1.398-5.24l18.47-1.075l0.399-0.694L23.26,51.382l1.589-2.763l35.715-2.317l0.403-0.694L50.497,44.926
			 M65.441,46.075l3.301-0.022c2.195-0.014,4.486-1.018,5.322-3.055c0.778-1.892-0.262-3.503-1.641-3.499l-3.192-0.002
			L65.441,46.075z M61.648,52.662l-3.971,6.89h3.782c1.753,0,4.896-0.877,5.865-3.375c0.895-2.316-0.755-3.519-1.902-3.515H61.648z
			 M32.829,63.294l-2.292,3.936l-16.416,0.022l1.589-2.761L32.829,63.294z M33.987,32.75l13.197,0.009l0.997,3.742L32.399,35.51
			L33.987,32.75z M48.936,39.455l1.438,5.471l-22.543-1.482l1.589-2.76L48.936,39.455z M37.448,55.254l-2.872,4.957l-15.885-0.896
			l1.59-2.76L37.448,55.254z"/>
	</g>
</g>
</svg>
