<?xml version="1.0" encoding="utf-8"?>
<!-- Generator: Adobe Illustrator 16.0.0, SVG Export Plug-In . SVG Version: 6.00 Build 0)  -->
<!DOCTYPE svg PUBLIC "-//W3C//DTD SVG 1.1//EN" "http://www.w3.org/Graphics/SVG/1.1/DTD/svg11.dtd">
<svg version="1.1" id="Layer_1" xmlns="http://www.w3.org/2000/svg" xmlns:xlink="http://www.w3.org/1999/xlink" x="0px" y="0px"
	 width="115px" height="115px" viewBox="0 0 115 115" enable-background="new 0 0 115 115" xml:space="preserve">
<g>
	<g>
		<path fill="#42FFA0" d="M1.685,5.634c-1.797,1.799-1.8,4.715-0.004,6.513c1.8,1.801,4.713,1.799,6.51,0s1.8-4.715,0-6.517
			C6.395,3.833,3.482,3.837,1.685,5.634z M18.541,29.022c1.8,1.803,4.713,1.799,6.511,0.002c1.796-1.8,1.799-4.716,0-6.518
			c-1.796-1.798-4.709-1.794-6.506,0.005C16.749,24.309,16.746,27.224,18.541,29.022z M35.402,45.899c1.8,1.801,4.713,1.799,6.51,0
			s1.8-4.715,0-6.517c-1.796-1.797-4.709-1.794-6.506,0.005C33.609,41.185,33.606,44.101,35.402,45.899z M52.262,62.775
			c1.8,1.802,4.714,1.798,6.511,0c1.797-1.799,1.799-4.715-0.002-6.516c-1.795-1.798-4.709-1.795-6.505,0.003
			C50.469,58.062,50.466,60.978,52.262,62.775z M69.123,79.651c1.8,1.801,4.713,1.798,6.51,0c1.797-1.799,1.801-4.715,0-6.517
			c-1.796-1.797-4.709-1.794-6.506,0.004C67.33,74.938,67.327,77.854,69.123,79.651z M85.986,90.015
			c-1.797,1.799-1.799,4.715-0.004,6.513c1.801,1.802,4.713,1.799,6.511,0c1.797-1.799,1.8-4.715,0-6.517
			C90.697,88.214,87.783,88.218,85.986,90.015z M102.843,113.403c1.8,1.801,4.714,1.798,6.511-0.001
			c1.797-1.798,1.799-4.714,0-6.515c-1.797-1.798-4.709-1.795-6.506,0.004C101.05,108.69,101.048,111.605,102.843,113.403z
			 M101.509,62.4c0.002,2.551,2.062,4.607,4.603,4.606c2.541,0.001,4.602-2.063,4.604-4.608c-0.002-2.543-2.063-4.603-4.601-4.6
			C103.574,57.799,101.51,59.855,101.509,62.4z M101.503,86.272c0.002,2.551,2.063,4.611,4.601,4.608
			c2.543-0.001,4.602-2.063,4.604-4.609c0.001-2.544-2.063-4.604-4.6-4.602C103.566,81.672,101.508,83.732,101.503,86.272z
			 M63,110.159c0-2.545-2.061-4.606-4.602-4.606c-2.543,0-4.601,2.066-4.602,4.604c0,2.544,2.057,4.61,4.598,4.61
			C60.941,114.763,63,112.703,63,110.159z M86.85,110.152c0-2.544-2.056-4.603-4.603-4.604c-2.543,0-4.601,2.066-4.601,4.604
			c-0.002,2.545,2.06,4.607,4.599,4.611C84.791,114.758,86.854,112.693,86.85,110.152z"/>
	</g>
</g>
</svg>
