<?xml version="1.0" encoding="utf-8"?>
<!-- Generator: Adobe Illustrator 16.0.0, SVG Export Plug-In . SVG Version: 6.00 Build 0)  -->
<!DOCTYPE svg PUBLIC "-//W3C//DTD SVG 1.1//EN" "http://www.w3.org/Graphics/SVG/1.1/DTD/svg11.dtd">
<svg version="1.1" id="Layer_1" xmlns="http://www.w3.org/2000/svg" xmlns:xlink="http://www.w3.org/1999/xlink" x="0px" y="0px"
	 width="115px" height="115px" viewBox="0 0 115 115" enable-background="new 0 0 115 115" xml:space="preserve">
<g>
	<g>
		<path fill-rule="evenodd" clip-rule="evenodd" fill="#FFFFFF" d="M109.417,5.685c-1.799-1.797-4.715-1.8-6.512-0.004
			c-1.802,1.8-1.799,4.713-0.001,6.51c1.799,1.797,4.715,1.8,6.517,0C111.218,10.395,111.214,7.482,109.417,5.685z M86.029,22.541
			c-1.802,1.8-1.799,4.713-0.001,6.511c1.799,1.796,4.715,1.799,6.517,0c1.798-1.796,1.794-4.709-0.005-6.506
			C90.742,20.749,87.827,20.746,86.029,22.541z M69.153,39.402c-1.802,1.8-1.799,4.713,0,6.51c1.798,1.797,4.714,1.8,6.516,0
			c1.797-1.796,1.794-4.709-0.005-6.506C73.866,37.609,70.95,37.606,69.153,39.402z M52.276,56.262c-1.802,1.8-1.798,4.714,0,6.511
			c1.799,1.797,4.715,1.799,6.516-0.001c1.798-1.796,1.795-4.709-0.003-6.506C56.99,54.469,54.074,54.466,52.276,56.262z
			 M35.4,73.123c-1.801,1.8-1.798,4.713,0,6.51c1.799,1.797,4.715,1.8,6.517,0c1.797-1.796,1.794-4.709-0.004-6.506
			C40.114,71.33,37.198,71.327,35.4,73.123z M25.037,89.986c-1.799-1.797-4.715-1.799-6.513-0.003c-1.802,1.8-1.799,4.713,0,6.51
			s4.715,1.8,6.517,0C26.838,94.697,26.834,91.783,25.037,89.986z M1.648,106.843c-1.801,1.8-1.798,4.713,0.001,6.51
			c1.798,1.797,4.714,1.799,6.515,0c1.798-1.796,1.795-4.709-0.004-6.506S3.446,105.048,1.648,106.843z M52.651,105.509
			c-2.551,0.002-4.607,2.061-4.606,4.602c-0.001,2.541,2.062,4.602,4.608,4.605c2.543-0.002,4.603-2.064,4.6-4.601
			C57.252,107.574,55.196,105.51,52.651,105.509z M28.779,105.503c-2.551,0.002-4.611,2.063-4.608,4.6
			c0.001,2.543,2.063,4.602,4.609,4.604c2.544,0.001,4.604-2.062,4.602-4.599C33.38,107.567,31.319,105.508,28.779,105.503z
			 M4.892,67C7.437,67,9.499,64.94,9.499,62.398c0-2.543-2.067-4.6-4.604-4.601c-2.544,0-4.61,2.056-4.61,4.598
			C0.289,64.941,2.348,67,4.892,67z M4.899,90.849c2.544,0.001,4.603-2.055,4.605-4.602c0-2.543-2.067-4.6-4.604-4.601
			c-2.545-0.001-4.607,2.06-4.611,4.599C0.294,88.791,2.358,90.853,4.899,90.849z"/>
	</g>
</g>
</svg>
