<?xml version="1.0" encoding="utf-8"?>
<!-- Generator: Adobe Illustrator 16.0.0, SVG Export Plug-In . SVG Version: 6.00 Build 0)  -->
<!DOCTYPE svg PUBLIC "-//W3C//DTD SVG 1.1//EN" "http://www.w3.org/Graphics/SVG/1.1/DTD/svg11.dtd">
<svg version="1.1" id="Layer_1" xmlns="http://www.w3.org/2000/svg" xmlns:xlink="http://www.w3.org/1999/xlink" x="0px" y="0px"
	 width="170px" height="170px" viewBox="0 0 170 170" enable-background="new 0 0 170 170" xml:space="preserve">
<g>
	<g>
		<g>
			<path fill="#FFFFFF" d="M73.036,1.507l2.713-0.071l1.79,8.596l1.024,5.301l0.09-0.002c0.315-1.792,0.651-3.584,0.989-5.353
				l1.919-8.696l2.307-0.06l2.399,8.581c0.431,1.726,0.84,3.498,1.272,5.291l0.113-0.003c0.223-1.81,0.469-3.601,0.695-5.344
				l1.353-8.68L92.209,1l-2.836,16.687l-3.234,0.086l-2.485-9.166c-0.328-1.3-0.609-2.535-0.87-3.792l-0.113,0.003
				c-0.191,1.269-0.43,2.517-0.667,3.832l-1.948,9.283l-3.166,0.083L73.036,1.507z"/>
			<path fill="#FFFFFF" d="M98.2,2.045l2.553,0.599l-1.553,6.587l6.934,1.626l1.552-6.587l2.554,0.599l-3.809,16.159l-2.554-0.599
				l1.734-7.355l-6.935-1.626l-1.734,7.354l-2.553-0.599L98.2,2.045z"/>
			<path fill="#FFFFFF" d="M118.717,21.409l-5.215-2.505l-3.346,3.651l-2.403-1.155L119.946,8.83l2.731,1.312l-2.252,17.346
				l-2.506-1.204L118.717,21.409z M119.04,19.286l0.381-2.296c0.275-1.87,0.632-3.751,0.978-5.665l-0.082-0.038
				c-1.251,1.501-2.516,2.922-3.789,4.313l-1.584,1.719L119.04,19.286z"/>
			<path fill="#FFFFFF" d="M131.511,17.931l-3.968-2.843l1.28-1.776l10.083,7.222l-1.28,1.776l-3.985-2.854l-8.428,11.705
				l-2.131-1.525L131.511,17.931z"/>
			<path fill="#FFFFFF" d="M146.534,28.05l1.754,1.946L135.909,41.1l-1.754-1.947L146.534,28.05z"/>
			<path fill="#FFFFFF" d="M152.34,38.771l-2.707-4.056l1.827-1.213l6.877,10.312l-1.826,1.213l-2.72-4.076l-12.033,7.986
				l-1.452-2.18L152.34,38.771z"/>
			<path fill="#FFFFFF" d="M162.804,53.557l0.946,2.441l-15.529,5.992l-0.946-2.44L162.804,53.557z"/>
			<path fill="#FFFFFF" d="M151.4,63.922l2.104,1.097c-0.904,1.431-1.293,3.183-0.941,4.746c0.445,1.957,1.622,2.848,2.99,2.539
				c1.478-0.333,1.69-1.538,2.011-3.184l0.462-2.462c0.307-1.712,1.147-3.729,3.508-4.262c2.558-0.578,4.986,1.232,5.687,4.313
				c0.428,1.892,0.041,3.853-0.938,5.37l-1.936-0.973c0.674-1.217,0.971-2.463,0.646-3.894c-0.375-1.649-1.413-2.548-2.715-2.254
				c-1.389,0.313-1.624,1.731-1.853,3.17l-0.444,2.436c-0.381,2.099-1.259,3.754-3.64,4.292c-2.604,0.588-5.21-1.09-6.015-4.631
				C149.823,68.002,150.235,65.735,151.4,63.922z"/>
			<path fill="#FFFFFF" d="M168.805,77.899l0.045,2.684l-9.682,5.658l-3.5,1.793l0.001,0.112c1.718-0.162,3.727-0.398,5.536-0.427
				l7.755-0.123l0.04,2.481l-16.642,0.264l-0.044-2.684L162.04,82l3.456-1.792l-0.001-0.114c-1.718,0.164-3.637,0.396-5.446,0.425
				l-7.845,0.125l-0.041-2.48L168.805,77.899z"/>
			<path fill="#FFFFFF" d="M165.328,100.126l0.975-4.775l2.151,0.437l-2.48,12.136l-2.15-0.437l0.98-4.796l-14.162-2.879
				l0.523-2.564L165.328,100.126z"/>
			<path fill="#FFFFFF" d="M149.039,110.705c1.704,6.312,3.473,10.01,5.924,11.225c1.621,0.804,3.168,0.487,3.994-1.169
				c0.583-1.171,0.318-2.513-0.202-3.752l1.952-0.671c0.742,1.955,0.94,3.691-0.028,5.629c-1.358,2.728-4.018,3.602-6.711,2.267
				c-2.876-1.426-4.716-5.185-6.165-9.833c-0.302,0.808-0.703,1.768-1.066,2.494l-1.852,3.718l-1.985-0.983l4.782-9.598
				L149.039,110.705z"/>
			<path fill="#FFFFFF" d="M148.829,125.929c4.619,3.446,5.604,6.801,3.64,9.421c-1.951,2.601-5.489,2.61-10.089-0.823
				c-4.637-3.459-5.682-6.887-3.73-9.487C140.615,122.419,144.192,122.469,148.829,125.929z M143.87,132.54
				c3.821,2.851,5.935,2.934,6.951,1.58c1.016-1.355,0.339-3.352-3.482-6.205c-3.857-2.878-6.025-3.003-7.041-1.647
				C139.282,127.623,140.012,129.661,143.87,132.54z"/>
			<path fill="#FFFFFF" d="M135.766,131.66c-0.639,6.504-0.293,10.586,1.57,12.585c1.232,1.322,2.79,1.572,4.149,0.312
				c0.96-0.891,1.187-2.239,1.139-3.581l2.061,0.059c0.004,2.092-0.425,3.783-2.015,5.257c-2.237,2.072-5.033,1.955-7.08-0.243
				c-2.187-2.346-2.578-6.51-2.288-11.367c-0.567,0.65-1.284,1.406-1.88,1.958l-3.049,2.825l-1.507-1.619l7.869-7.294
				L135.766,131.66z"/>
			<path fill="#FFFFFF" d="M126.54,140.018c-1.796,6.285-2.188,10.365-0.713,12.665c0.974,1.52,2.463,2.042,4.026,1.047
				c1.106-0.705,1.569-1.992,1.764-3.32l2.019,0.425c-0.372,2.059-1.099,3.647-2.928,4.813c-2.574,1.641-5.304,1.024-6.925-1.503
				c-1.729-2.699-1.367-6.865-0.209-11.592c-0.675,0.536-1.517,1.153-2.201,1.59l-3.508,2.237l-1.194-1.863l9.053-5.772
				L126.54,140.018z"/>
			<path fill="#FFFFFF" d="M111.667,149.286l-0.915,2.188c-1.508-0.774-3.293-1.012-4.824-0.523
				c-1.918,0.611-2.705,1.856-2.277,3.189c0.461,1.44,1.682,1.549,3.354,1.726l2.501,0.245c1.736,0.158,3.824,0.818,4.562,3.118
				c0.799,2.492-0.8,5.062-3.816,6.024c-1.854,0.591-3.846,0.374-5.445-0.466l0.804-2.01c1.274,0.565,2.544,0.752,3.946,0.307
				c1.616-0.516,2.424-1.625,2.017-2.895c-0.434-1.354-1.87-1.464-3.328-1.567l-2.472-0.231c-2.13-0.197-3.86-0.925-4.603-3.246
				c-0.812-2.535,0.637-5.272,4.106-6.377C107.454,148.072,109.754,148.285,111.667,149.286z"/>
			<path fill="#FFFFFF" d="M98.263,158.393l0.908,9.428l-2.61,0.25l-0.925-9.608c-0.358-3.727-1.96-4.797-4.032-4.6
				c-2.092,0.202-3.507,1.56-3.147,5.287l0.925,9.607L86.858,169l-0.907-9.428c-0.518-5.388,1.765-7.622,5.434-7.974
				C95.054,151.246,97.745,153.005,98.263,158.393z"/>
			<path fill="#FFFFFF" d="M79.378,168.925l-2.974-0.448l-1.763-8.75c-0.214-1.149-0.381-2.315-0.592-3.487l-0.112-0.018
				c-0.548,1.059-1.031,2.126-1.576,3.163l-4.229,7.847l-2.997-0.452l2.485-16.412l2.414,0.363l-1.229,8.117
				c-0.223,1.471-0.744,3.559-1.105,5.034l0.09,0.013l1.894-3.591l4.046-7.396l1.609,0.242l1.699,8.261l0.723,3.986l0.089,0.014
				c0.116-1.511,0.234-3.66,0.458-5.131l1.229-8.117l2.324,0.35L79.378,168.925z"/>
			<path fill="#FFFFFF" d="M57.668,164.625l-2.754-1.208l0.593-8.91c0.094-1.166,0.239-2.334,0.342-3.522l-0.103-0.046
				c-0.809,0.878-1.552,1.784-2.352,2.642l-6.143,6.474l-2.775-1.218l6.705-15.201l2.236,0.982l-3.316,7.518
				c-0.601,1.363-1.651,3.244-2.387,4.573l0.083,0.036l2.771-2.976l5.847-6.085l1.491,0.654l-0.526,8.421l-0.347,4.037l0.083,0.037
				c0.507-1.429,1.185-3.472,1.787-4.836l3.315-7.517l2.153,0.944L57.668,164.625z"/>
			<path fill="#FFFFFF" d="M38.305,154.891l-7.879-5.878l1.315-1.752l5.778,4.311l2.777-3.702l-4.889-3.65l1.327-1.769l4.891,3.647
				l3.224-4.298l-5.977-4.46l1.329-1.77l8.078,6.025L38.305,154.891z"/>
			<path fill="#FFFFFF" d="M32.15,126.975l-2.48,7.276l1.797,1.998l5-4.472l1.751,1.947l-12.391,11.081l-3.638-4.046
				c-2.294-2.552-3.106-5.28-0.43-7.673c1.92-1.716,3.984-1.715,5.877-0.591l2.535-7.72L32.15,126.975z M29.902,137.649
				l-1.676-1.864c-1.614-1.797-3.231-2.108-4.729-0.768c-1.498,1.339-1.145,2.78,0.471,4.577l1.675,1.863L29.902,137.649z"/>
			<path fill="#FFFFFF" d="M19.515,123.427c-4.879,2.371-9.253,0.833-11.094-2.939c-0.912-1.865-0.731-3.76-0.18-5.157l2.129,0.547
				c-0.417,1.155-0.51,2.354,0.084,3.572c1.258,2.575,4.285,3.312,7.802,1.603c3.558-1.728,4.921-4.447,3.634-7.083
				c-0.664-1.359-1.788-2.116-3.2-2.535l0.871-1.978c1.967,0.525,3.481,1.671,4.423,3.597
				C25.815,116.804,24.416,121.046,19.515,123.427z"/>
			<path fill="#FFFFFF" d="M13.073,110.134c-5.206,1.276-9.033-0.829-10.055-4.969c-1.02-4.142,1.386-7.799,6.593-9.076
				c5.207-1.277,9.148,0.824,10.169,4.965C20.801,105.193,18.279,108.856,13.073,110.134z M10.253,98.696
				c-3.799,0.932-5.674,3.251-5.015,5.923c0.659,2.673,3.393,3.838,7.194,2.907c3.798-0.932,5.789-3.256,5.13-5.93
				C16.902,98.924,14.054,97.764,10.253,98.696z"/>
			<path fill="#FFFFFF" d="M1.087,91.931L1,89.317l14.417-0.478l-0.233-7.009l2.215-0.074l0.32,9.624L1.087,91.931z"/>
			<path fill="#FFFFFF" d="M1.165,77.178l0.369-2.59l14.283,2.024l0.989-6.944L19,69.979l-1.359,9.534L1.165,77.178z"/>
			<path fill="#FFFFFF" d="M3.836,62.506l3.154-9.295l2.078,0.7l-2.313,6.818l4.393,1.482l1.957-5.771l2.1,0.708l-1.957,5.771
				l5.101,1.721l2.391-7.053l2.1,0.708l-3.233,9.531L3.836,62.506z"/>
			<path fill="#FFFFFF" d="M16.378,52.475c-4.699-2.712-5.865-7.191-3.759-10.824c1.043-1.796,2.72-2.706,4.189-3.03l0.735,2.066
				c-1.194,0.301-2.244,0.895-2.923,2.066c-1.439,2.481-0.361,5.397,3.026,7.353c3.427,1.976,6.451,1.583,7.924-0.955
				c0.76-1.309,0.762-2.663,0.321-4.064l2.131-0.386c0.663,1.92,0.558,3.814-0.519,5.669C25.408,53.983,21.097,55.196,16.378,52.475
				z"/>
			<path fill="#FFFFFF" d="M22.38,32.36l-3.211,3.672l-1.654-1.438l8.164-9.334l1.653,1.439l-3.226,3.688l10.893,9.478l-1.725,1.973
				L22.38,32.36z"/>
			<path fill="#FFFFFF" d="M29.287,22.195l1.993-1.704l10.833,12.612l-1.993,1.703L29.287,22.195z"/>
			<path fill="#FFFFFF" d="M39.8,23.876c-2.756-4.586-1.867-8.854,1.8-11.045c3.667-2.192,7.879-0.975,10.635,3.612
				c2.757,4.585,1.905,8.96-1.762,11.153C46.807,29.788,42.556,28.462,39.8,23.876z M49.927,17.822
				c-2.012-3.348-4.784-4.452-7.151-3.036c-2.367,1.415-2.68,4.363-0.667,7.711c2.011,3.347,4.823,4.56,7.19,3.145
				C51.666,24.227,51.94,21.17,49.927,17.822z"/>
			<path fill="#FFFFFF" d="M53.976,6.848l2.57-0.802l8.186,7.661l2.715,2.841l0.108-0.033c-0.643-1.597-1.438-3.453-1.978-5.176
				l-2.316-7.386l2.375-0.74l4.97,15.85l-2.569,0.802l-8.199-7.704l-2.703-2.798l-0.108,0.034c0.643,1.597,1.412,3.366,1.952,5.089
				l2.344,7.473l-2.375,0.74L53.976,6.848z"/>
		</g>
	</g>
	<path fill="#FFFFFF" d="M135.936,82.009c-0.392-0.704-1.505-0.733-2.003-0.099c-1.313,1.675-2.788,3.194-4.516,4.455
		c-0.445,0.325-0.878,0.665-1.332,0.975c-0.722,0.491-1.438,0.995-2.19,1.433c-0.641,0.373-1.397,0.573-1.986,1.009
		c-1.004,0.743-2.112,1.176-3.31,1.436c-0.204,0.043-0.438,0.07-0.591,0.192c-0.612,0.479-1.311,0.581-2.057,0.587
		c-0.313,0.004-0.642,0.07-0.935,0.182c-1.143,0.443-2.323,0.75-3.542,0.766c-1.716,0.021-3.439,0.026-5.147-0.126
		c-1.136-0.1-2.338-0.05-3.378-0.712c-0.187-0.119-0.468-0.116-0.708-0.124c-0.502-0.016-1.007,0.014-1.509-0.01
		c-0.252-0.013-0.579-0.022-0.737-0.174c-0.543-0.513-1.215-0.624-1.886-0.656c-0.816-0.038-1.138-0.667-1.185-1.242
		c-0.037-0.431,0.039-0.919,0.219-1.309c0.813-1.749,1.462-3.546,1.962-5.407c0.327-1.219,0.29-2.547,1.058-3.64
		c0.05-0.07,0.025-0.189,0.047-0.282c0.066-0.297,0.138-0.595,0.213-0.89c0.22-0.853,0.585-1.695,0.632-2.556
		c0.095-1.79,0.148-3.6-0.01-5.381c-0.294-3.333-1.379-6.395-3.574-9.007c-0.536-0.638-1.139-1.152-1.959-1.231
		c-1.058-0.102-2.13-0.099-3.196-0.091c-1.921,0.013-3.531,0.748-4.62,2.337c-0.634,0.923-1.107,1.966-1.588,2.985
		c-0.721,1.532-1.384,3.09-2.071,4.638c-0.031,0.074-0.056,0.15-0.085,0.225c-0.181,0.478-0.363,0.956-0.544,1.433
		c-0.156,0.405-0.451,0.813-0.438,1.211c0.021,0.618-0.215,1.126-0.404,1.663c-0.584,1.675-1.252,3.309-2.274,4.784
		c-0.244,0.35-0.474,0.436-0.789,0.258c-0.809-0.461-1.69-0.855-2.364-1.469c-0.748-0.68-1.61-1.133-2.424-1.682
		c-0.458-0.308-0.969-0.667-1.212-1.13c-0.885-1.696-2.163-2.94-3.811-3.904c-0.865-0.508-1.6-1.25-2.349-1.937
		c-0.28-0.255-0.373-0.721-0.908-0.606c-0.081,0.017-0.21-0.132-0.297-0.222c-0.653-0.667-1.248-1.402-1.963-1.994
		c-1.135-0.937-2.378-1.74-3.523-2.665c-3.733-3.016-7.443-6.063-11.158-9.099c-0.122-0.1-0.222-0.229-0.327-0.346
		c-0.221-0.244-0.407-0.534-0.667-0.727c-0.416-0.313-0.893-0.547-0.914-1.166c-0.003-0.071-0.108-0.151-0.182-0.208
		c-1.126-0.837-2.191-1.776-3.607-2.123h-0.391c-0.893,0.665-1.306,1.561-1.297,2.664c0.009,1.052,0.022,2.106,0.016,3.158
		c-0.002,0.179-0.085,0.36-0.142,0.537c-0.072,0.236-0.242,0.478-0.221,0.702c0.117,1.301,0.278,2.598,0.425,3.895
		c0.126,1.124,0.172,2.264,0.402,3.365c0.314,1.495,0.693,2.987,1.187,4.43c0.354,1.031,1.004,1.956,1.408,2.975
		c0.411,1.04,1.233,1.9,1.332,3.071c0.007,0.075,0.061,0.15,0.105,0.218c0.337,0.501,0.85,0.911,0.814,1.605
		c-0.002,0.056,0.116,0.111,0.158,0.179c0.395,0.644,0.822,1.271,1.164,1.942c0.337,0.658,0.563,1.375,0.888,2.042
		c1.076,2.209,2.48,4.195,4.114,6.034c1.609,1.812,3.283,3.545,5.233,4.995c0.241,0.178,0.518,0.311,0.753,0.495
		c0.499,0.39,0.961,0.829,1.477,1.189c0.354,0.244,0.595,0.417,0.532,0.943c-0.289,2.382-0.846,4.755,0.035,7.165
		c0.259,0.707,0.325,1.521,0.574,2.267c0.25,0.742,0.439,1.503,0.686,2.247c0.143,0.427,0.405,0.82,0.513,1.253
		c0.269,1.08,0.698,2.064,1.377,2.957c1.693,2.218,3.375,4.445,5.559,6.221c1.963,1.598,4.134,2.668,6.757,2.506
		c0.08-0.005,0.18-0.022,0.24,0.015c0.791,0.493,1.318,0.038,1.886-0.455c0.407-0.352,0.873-0.666,1.363-0.888
		c0.89-0.406,1.861-0.651,2.721-1.105c1.256-0.66,2.431-1.479,3.674-2.167c1.44-0.802,2.823-1.654,3.992-2.854
		c0.747-0.765,1.802-1.228,2.25-2.292c1.353-1.035,2.063-2.504,2.744-4c0.319-0.7,0.681-1.382,1.038-2.101
		c1.722,0.802,3.481,1.193,5.306,1.298c0.2,0.012,0.469,0.041,0.596-0.069c0.737-0.626,1.454-0.44,2.211-0.056
		c0.601,0.302,1.229,0.557,1.852,0.817c0.312,0.131,0.704,0.149,0.945,0.354c0.485,0.413,1.035,0.368,1.499,0.187
		c1.279-0.5,2.531-1.07,3.769-1.67c1.364-0.663,2.668-1.452,4.049-2.073c3.89-1.76,7.627-3.786,11.167-6.175
		c1.151-0.777,2.309-1.563,2.934-2.844c0.851-1.747,1.612-3.539,2.408-5.313c0.025-0.055,0.01-0.128,0.019-0.193
		c0.126-0.928,0.277-1.854,0.371-2.785C136.386,84.012,136.473,82.974,135.936,82.009z"/>
</g>
</svg>
