<?xml version="1.0" encoding="utf-8"?>
<!-- Generator: Adobe Illustrator 16.0.0, SVG Export Plug-In . SVG Version: 6.00 Build 0)  -->
<!DOCTYPE svg PUBLIC "-//W3C//DTD SVG 1.1//EN" "http://www.w3.org/Graphics/SVG/1.1/DTD/svg11.dtd">
<svg version="1.1" id="Layer_1" xmlns="http://www.w3.org/2000/svg" xmlns:xlink="http://www.w3.org/1999/xlink" x="0px" y="0px"
	 width="465px" height="345px" viewBox="54.117 -0.92 465 345" enable-background="new 54.117 -0.92 465 345" xml:space="preserve">
<g opacity="0.3">
	<path fill="#FFFFFF" d="M67.302-0.46c7.014,1.721,12.299,6.379,17.873,10.54c0.366,0.274,0.89,0.673,0.902,1.029
		c0.105,3.073,2.463,4.242,4.529,5.79c1.281,0.961,2.204,2.397,3.299,3.612c0.524,0.584,1.015,1.219,1.618,1.713
		c18.408,15.085,36.782,30.212,55.274,45.194c5.671,4.595,11.836,8.584,17.455,13.237c3.543,2.933,6.487,6.589,9.719,9.902
		c0.436,0.445,1.07,1.184,1.468,1.099c2.655-0.565,3.112,1.744,4.497,3.016c3.708,3.408,7.354,7.096,11.645,9.614
		c8.162,4.791,14.488,10.966,18.871,19.396c1.197,2.301,3.74,4.083,5.999,5.61c4.039,2.731,8.31,4.979,12.011,8.352
		c3.347,3.051,7.712,5.008,11.715,7.298c1.556,0.889,2.702,0.46,3.909-1.282c5.074-7.323,8.382-15.439,11.291-23.757
		c0.933-2.667,2.111-5.193,2.008-8.257c-0.066-1.978,1.399-4.004,2.17-6.013c0.907-2.371,1.805-4.746,2.707-7.119
		c0.143-0.372,0.271-0.75,0.434-1.114c3.406-7.686,6.695-15.427,10.272-23.033c2.382-5.065,4.736-10.237,7.882-14.827
		c5.407-7.889,13.38-11.541,22.9-11.605c5.278-0.036,10.587-0.048,15.832,0.455c4.061,0.391,7.046,2.944,9.703,6.115
		c10.875,12.976,16.247,28.182,17.705,44.733c0.779,8.848,0.519,17.838,0.044,26.727c-0.228,4.274-2.042,8.462-3.125,12.693
		c-0.375,1.466-0.723,2.942-1.06,4.419c-0.106,0.464,0.015,1.054-0.231,1.404c-3.802,5.431-3.615,12.025-5.239,18.078
		c-2.479,9.24-5.692,18.174-9.719,26.852c-0.897,1.937-1.264,4.362-1.087,6.498c0.235,2.858,1.823,5.986,5.861,6.172
		c3.328,0.155,6.66,0.713,9.346,3.258c0.79,0.75,2.402,0.803,3.653,0.864c2.488,0.123,4.988-0.032,7.479,0.051
		c1.188,0.039,2.583,0.021,3.511,0.614c5.15,3.293,11.108,3.041,16.73,3.541c8.453,0.751,16.996,0.728,25.496,0.621
		c6.037-0.077,11.886-1.6,17.546-3.798c1.448-0.564,3.081-0.886,4.633-0.901c3.698-0.034,7.159-0.543,10.192-2.926
		c0.757-0.595,1.918-0.728,2.921-0.946c5.94-1.294,11.42-3.437,16.4-7.135c2.911-2.163,6.662-3.153,9.84-5.007
		c3.728-2.176,7.272-4.676,10.844-7.115c2.252-1.539,4.4-3.231,6.604-4.843c8.558-6.262,15.864-13.807,22.371-22.125
		c2.464-3.15,7.975-3.006,9.916,0.488c2.663,4.793,2.231,9.952,1.723,15.072c-0.461,4.626-1.215,9.223-1.835,13.833
		c-0.043,0.319,0.031,0.679-0.093,0.956c-3.944,8.811-7.717,17.706-11.932,26.386c-3.089,6.359-8.82,10.263-14.525,14.123
		c-17.534,11.864-36.043,21.925-55.316,30.661c-6.839,3.1-13.305,7.013-20.063,10.302c-6.121,2.98-12.33,5.814-18.664,8.295
		c-2.303,0.9-5.022,1.13-7.429-0.922c-1.188-1.016-3.133-1.107-4.677-1.756c-3.085-1.295-6.192-2.555-9.175-4.063
		c-3.753-1.9-7.301-2.825-10.944,0.282c-0.632,0.539-1.965,0.402-2.961,0.345c-9.038-0.525-17.751-2.462-26.28-6.45
		c-1.769,3.572-3.561,6.956-5.142,10.436c-3.374,7.427-6.895,14.728-13.59,19.871c-2.222,5.276-7.446,7.579-11.146,11.384
		c-5.786,5.949-12.642,10.186-19.795,14.16c-6.172,3.432-12,7.492-18.244,10.773c-4.283,2.25-9.095,3.475-13.521,5.484
		c-2.426,1.104-4.735,2.66-6.753,4.412c-2.813,2.443-5.427,4.707-9.341,2.258c-0.296-0.186-0.788-0.098-1.186-0.072
		c-12.998,0.805-23.744-4.514-33.472-12.445c-10.821-8.824-19.156-19.879-27.536-30.9c-3.371-4.434-5.49-9.322-6.82-14.684
		c-0.534-2.152-1.834-4.102-2.538-6.225c-1.225-3.689-2.164-7.474-3.396-11.161c-1.236-3.703-1.562-7.74-2.845-11.257
		c-4.365-11.964-1.605-23.746-0.175-35.578c0.316-2.616-0.885-3.471-2.625-4.687c-2.563-1.79-4.851-3.972-7.32-5.903
		c-1.17-0.915-2.542-1.569-3.734-2.458c-9.659-7.201-17.953-15.808-25.922-24.805c-8.093-9.138-15.047-18.998-20.383-29.971
		c-1.61-3.31-2.714-6.871-4.389-10.142c-1.703-3.329-3.818-6.448-5.771-9.646c-0.205-0.336-0.791-0.605-0.776-0.884
		c0.175-3.447-2.363-5.487-4.034-7.976c-0.222-0.33-0.491-0.704-0.521-1.075c-0.485-5.821-4.56-10.096-6.598-15.26
		c-1.994-5.055-5.223-9.651-6.97-14.769c-2.449-7.171-4.329-14.576-5.879-22c-1.142-5.472-1.367-11.135-1.997-16.715
		c-0.729-6.445-1.525-12.884-2.107-19.343c-0.102-1.12,0.736-2.317,1.104-3.49c0.274-0.878,0.693-1.774,0.699-2.666
		c0.032-5.228-0.033-10.459-0.075-15.688c-0.045-5.474,2.003-9.924,6.422-13.225H67.302z M232.137,330.305
		c1.655-4.227,2.71-4.943,7.128-4.924c1.932,0.01,3.869,0.225,5.787,0.096c1.14-0.076,2.341-0.465,3.352-1.014
		c5.365-2.908,10.616-6.035,16.034-8.84c3.627-1.879,7.867-2.783,11.143-5.1c16.617-11.758,31.284-25.426,40.697-43.91
		c2.132-4.188,3.72-8.514,4.239-13.241c0.628-5.701,5.41-8.011,10.368-5.137c1.112,0.644,2.175,1.374,3.264,2.06
		c2.651,1.673,5.228,3.515,8.635,3.229c0.489-0.041,1.063,0.317,1.524,0.606c3.583,2.25,7.552,3.141,11.708,3.211
		c4.504,0.076,9.013-0.06,13.517,0.012c4.396,0.069,8.761,0.681,12.363,3.384c1.976,1.48,4.013,1.876,6.287,1.871
		c7.843-0.017,14.524-3.789,21.409-6.789c5.872-2.559,11.581-5.492,17.378-8.226c5.257-2.478,10.721-4.585,15.766-7.434
		c11.06-6.244,21.87-12.922,32.858-19.293c7.67-4.447,14.544-9.815,18.237-18.026c3.217-7.152,5.574-14.694,8.217-22.098
		c0.206-0.578-0.13-1.796-0.589-2.056c-0.628-0.356-1.861-0.416-2.406-0.018c-3.407,2.493-7.13,4.753-9.932,7.832
		c-6.17,6.781-13.36,12.103-21.404,16.253c-7.704,3.974-15.362,7.968-23.605,10.967c-8.487,3.089-16.885,6.176-25.817,7.574
		c-15.67,2.454-31.434,2.275-47.184,1.198c-7.425-0.507-14.806-1.658-22.204-2.533c-0.55-0.065-1.083-0.263-1.624-0.398
		c-4.845-1.215-9.646-2.655-14.543-3.583c-5.188-0.982-9.436-3.753-13.264-6.936c-3.378-2.808-3.59-7.206-2.322-11.217
		c2.099-6.645,4.438-13.228,7.023-19.7c1.24-3.105,2.636-6.057,3.407-9.392c1.684-7.276,3.989-14.404,5.939-21.619
		c2.909-10.757,6.726-21.332,6.441-32.734c-0.087-3.501-0.329-6.896-2.182-9.564c0.338-1.202,0.912-2.161,0.787-3.018
		c-0.322-2.193-0.794-4.396-1.492-6.499c-2.355-7.091-4.552-14.255-7.354-21.17c-2.677-6.606-7.727-10.791-15.01-11.779
		c-10.401-1.412-23.152,6.508-27.196,16.68c-4.023,10.126-7.875,20.341-12.436,30.225c-2.303,4.989-3.251,10.185-4.586,15.356
		c-0.858,3.33-1.427,6.756-2.563,9.986c-1.087,3.09-2.81,5.95-4.131,8.965c-2.613,5.959-5.061,11.991-7.781,17.898
		c-0.485,1.054-1.848,1.981-3.009,2.397c-3.587,1.283-6.588-0.473-9.424-2.388c-4.707-3.18-9.433-6.341-14.007-9.705
		c-6.12-4.502-12.402-8.855-18.061-13.896c-5.631-5.015-10.567-10.809-15.824-16.246c-1.172-1.212-2.225-2.699-3.649-3.478
		c-7.66-4.19-13.826-10.193-20.083-16.107c-5.324-5.032-10.619-10.135-17.252-13.453c-2.072-1.035-3.918-2.057-5.055-4.196
		c-0.359-0.677-1.347-1.029-2.066-1.5c-0.769-0.503-1.625-0.892-2.324-1.472c-0.978-0.811-1.812-1.794-2.77-2.631
		c-1.024-0.896-2.205-1.624-3.173-2.573c-2.623-2.575-4.978-5.458-7.78-7.81c-12.012-10.085-24.229-19.927-36.204-30.054
		c-6.009-5.082-11.65-10.597-17.478-15.893c-2.332-2.119-4.901-3.795-8.303-4.19c-0.052,0.923-0.127,1.555-0.116,2.185
		c0.169,11.428,0.461,22.855,0.487,34.282c0.021,8.91,0.59,17.649,4.261,25.969c2.392,5.419,4.143,11.13,6.68,16.473
		c3.541,7.458,7.699,14.621,11.317,22.045c4.143,8.501,7.91,17.185,12.008,25.709c1.095,2.279,3.11,4.122,4.159,6.414
		c3.016,6.594,6.843,12.675,12.082,17.608c7.251,6.831,14.812,13.346,22.448,19.749c7.975,6.685,14.743,14.805,24.019,19.977
		c1.601,0.893,2.786,2.907,3.642,4.659c0.9,1.84,1.351,3.965-0.156,5.928c-3.763,4.897-5.314,10.549-5.628,16.632
		c-0.293,5.684,0.556,11.207,1.939,16.704c1.736,6.903,2.834,14.003,5.058,20.736c1.689,5.117,4.446,9.949,7.206,14.625
		c2.937,4.979,6.235,9.777,9.744,14.371c4.027,5.277,7.39,11.193,13.141,14.963c2.487,1.631,5.019,3.193,7.521,4.803
		c0.537,0.346,1.361,0.664,1.492,1.148c0.642,2.391,2.6,2.191,4.382,2.609c1.05,0.244,2.363,0.846,2.855,1.693
		c1.126,1.939,2.75,2.672,4.764,2.73C225.989,330.374,229.115,330.305,232.137,330.305"/>
	<path fill="#FFFFFF" d="M314.503,131.791c-1.795-0.651-3.575-1.348-5.391-1.935c-0.822-0.265-1.711-0.38-2.576-0.443
		c-1.516-0.11-2.819-0.123-3.92-1.711c-0.802-1.156-2.716-1.471-3.927-2.423c-4.82-3.791-7.821-9.003-8.764-14.814
		c-0.472-2.913,1.396-6.361,2.776-9.299c0.31-0.661,3.025-0.403,4.571-0.162c0.577,0.09,1.184,1.278,1.416,2.072
		c0.859,2.918,1.313,5.978,2.386,8.807c2.388,6.303,7.222,8.378,13.992,8.597c3.481,0.113,4.412-1.378,3.966-4.928
		c-0.271-2.157-0.435-4.306,2.024-5.34c1.524-0.641,4.487,0.782,5.178,3.07c1.147,3.806,1.766,7.785,2.365,11.729
		c0.104,0.669-0.89,1.633-1.559,2.269C324.448,129.754,320.604,130.944,314.503,131.791"/>
	<path fill="#FFFFFF" d="M298.433,84.89c0.273,0.259,1.098,0.969,1.835,1.757c0.706,0.755,1.301,1.612,1.984,2.389
		c1.694,1.929,1.473,3.593-0.688,4.951c-3.375,2.119-9.323,0.985-11.387-2.306c-0.397-0.636-0.462-1.833-0.138-2.512
		C291.508,86.105,294.137,84.832,298.433,84.89"/>
	<path fill="#FFFFFF" d="M319.062,83.32c0.133,2.303,0.323,4.146,0.319,5.987c-0.004,1.889-0.666,3.332-2.703,4.062
		c-2.103,0.753-3.634,0.135-4.893-1.437c-0.85-1.059-1.79-2.188-2.164-3.442c-0.33-1.104-0.401-2.846,0.24-3.566
		c1.573-1.765,3.484-3.345,5.528-4.54C317.208,79.323,319.103,81.222,319.062,83.32"/>
</g>
</svg>
