<?xml version="1.0" encoding="utf-8"?>
<!-- Generator: Adobe Illustrator 16.0.0, SVG Export Plug-In . SVG Version: 6.00 Build 0)  -->
<!DOCTYPE svg PUBLIC "-//W3C//DTD SVG 1.1//EN" "http://www.w3.org/Graphics/SVG/1.1/DTD/svg11.dtd">
<svg version="1.1" id="Layer_1" xmlns="http://www.w3.org/2000/svg" xmlns:xlink="http://www.w3.org/1999/xlink" x="0px" y="0px"
	 width="578.502px" height="541.722px" viewBox="0 0 578.502 541.722" enable-background="new 0 0 578.502 541.722"
	 xml:space="preserve">
<g>
	<path d="M69.765,0c7.014,1.721,12.299,6.379,17.873,10.54c0.366,0.274,0.89,0.673,0.902,1.029c0.106,3.073,2.463,4.242,4.53,5.79
		c1.281,0.961,2.204,2.397,3.298,3.612c0.525,0.584,1.015,1.219,1.619,1.713c18.408,15.085,36.782,30.212,55.274,45.194
		c5.671,4.595,11.836,8.584,17.455,13.237c3.543,2.933,6.487,6.589,9.719,9.902c0.435,0.445,1.07,1.184,1.468,1.099
		c2.655-0.565,3.112,1.744,4.497,3.016c3.708,3.408,7.353,7.096,11.644,9.614c8.162,4.791,14.488,10.966,18.871,19.396
		c1.198,2.301,3.741,4.083,5.999,5.61c4.039,2.731,8.31,4.979,12.011,8.352c3.347,3.051,7.712,5.008,11.715,7.298
		c1.556,0.889,2.702,0.46,3.909-1.282c5.074-7.323,8.382-15.439,11.291-23.757c0.933-2.667,2.111-5.193,2.008-8.257
		c-0.066-1.978,1.399-4.004,2.17-6.013c0.907-2.371,1.805-4.746,2.707-7.119c0.142-0.372,0.271-0.75,0.433-1.114
		c3.407-7.686,6.696-15.427,10.273-23.033c2.382-5.065,4.736-10.237,7.882-14.827c5.406-7.889,13.38-11.541,22.899-11.605
		c5.279-0.036,10.587-0.048,15.832,0.455c4.061,0.391,7.046,2.944,9.703,6.115c10.875,12.976,16.247,28.182,17.705,44.733
		c0.78,8.848,0.519,17.838,0.044,26.727c-0.227,4.274-2.042,8.462-3.125,12.693c-0.375,1.466-0.722,2.942-1.059,4.419
		c-0.107,0.464,0.014,1.054-0.232,1.404c-3.801,5.431-3.615,12.025-5.239,18.078c-2.479,9.24-5.692,18.174-9.719,26.852
		c-0.897,1.937-1.263,4.362-1.087,6.498c0.236,2.858,1.824,5.986,5.862,6.172c3.328,0.155,6.66,0.713,9.345,3.258
		c0.791,0.75,2.403,0.803,3.654,0.864c2.488,0.123,4.988-0.032,7.479,0.051c1.188,0.039,2.583,0.021,3.511,0.614
		c5.15,3.293,11.108,3.041,16.731,3.541c8.453,0.751,16.996,0.728,25.496,0.621c6.037-0.077,11.885-1.6,17.546-3.798
		c1.448-0.564,3.081-0.886,4.633-0.901c3.698-0.034,7.159-0.543,10.192-2.926c0.757-0.595,1.918-0.728,2.921-0.946
		c5.94-1.294,11.42-3.437,16.4-7.135c2.911-2.163,6.662-3.153,9.84-5.007c3.728-2.176,7.273-4.676,10.844-7.115
		c2.252-1.539,4.4-3.231,6.604-4.843c8.558-6.262,15.865-13.807,22.371-22.125c2.464-3.15,7.975-3.006,9.916,0.488
		c2.664,4.793,2.232,9.952,1.723,15.072c-0.461,4.626-1.215,9.223-1.835,13.833c-0.043,0.319,0.031,0.679-0.093,0.956
		c-3.944,8.811-7.716,17.706-11.931,26.386c-3.089,6.359-8.821,10.263-14.526,14.123c-17.534,11.864-36.043,21.925-55.316,30.661
		c-6.839,3.1-13.305,7.013-20.063,10.302c-6.121,2.98-12.33,5.814-18.664,8.295c-2.303,0.901-5.022,1.13-7.429-0.922
		c-1.188-1.016-3.132-1.108-4.676-1.756c-3.085-1.294-6.193-2.555-9.175-4.063c-3.753-1.9-7.301-2.825-10.944,0.282
		c-0.632,0.539-1.965,0.402-2.961,0.345c-9.038-0.525-17.751-2.462-26.281-6.45c-1.768,3.572-3.56,6.956-5.141,10.436
		c-3.374,7.427-6.895,14.728-13.59,19.871c-2.222,5.276-7.446,7.58-11.146,11.384c-5.786,5.949-12.641,10.186-19.795,14.161
		c-6.171,3.43-12,7.491-18.244,10.772c-4.283,2.251-9.094,3.476-13.52,5.485c-2.426,1.103-4.736,2.661-6.753,4.412
		c-2.813,2.443-5.427,4.707-9.341,2.257c-0.296-0.185-0.788-0.097-1.185-0.072c-12.999,0.806-23.745-4.514-33.472-12.445
		c-10.821-8.824-19.156-19.879-27.536-30.901c-3.371-4.433-5.491-9.322-6.821-14.683c-0.534-2.152-1.834-4.101-2.538-6.225
		c-1.224-3.689-2.164-7.473-3.396-11.16c-1.237-3.703-1.562-7.74-2.845-11.257c-4.365-11.964-1.605-23.746-0.175-35.578
		c0.317-2.616-0.884-3.471-2.625-4.687c-2.563-1.79-4.85-3.972-7.32-5.903c-1.17-0.915-2.542-1.569-3.734-2.458
		c-9.66-7.201-17.954-15.808-25.922-24.805c-8.093-9.138-15.047-18.998-20.383-29.971c-1.61-3.31-2.714-6.871-4.389-10.142
		c-1.703-3.329-3.818-6.448-5.771-9.646c-0.205-0.336-0.791-0.605-0.777-0.884c0.175-3.447-2.363-5.487-4.034-7.976
		c-0.221-0.33-0.491-0.704-0.521-1.075c-0.486-5.821-4.56-10.096-6.598-15.26c-1.994-5.055-5.223-9.651-6.97-14.769
		c-2.449-7.171-4.329-14.576-5.879-22c-1.141-5.472-1.367-11.135-1.997-16.715c-0.728-6.445-1.525-12.884-2.107-19.343
		c-0.102-1.12,0.736-2.317,1.103-3.49c0.275-0.878,0.694-1.774,0.7-2.666c0.032-5.228-0.034-10.459-0.076-15.688
		C61.366,7.751,63.414,3.301,67.833,0H69.765z M234.6,330.766c1.655-4.228,2.71-4.944,7.128-4.924
		c1.931,0.009,3.869,0.224,5.787,0.095c1.14-0.076,2.341-0.465,3.351-1.013c5.366-2.908,10.617-6.035,16.035-8.841
		c3.627-1.879,7.867-2.782,11.142-5.099c16.616-11.758,31.283-25.426,40.697-43.91c2.131-4.187,3.719-8.514,4.239-13.241
		c0.628-5.701,5.41-8.011,10.368-5.137c1.112,0.644,2.175,1.374,3.264,2.06c2.651,1.673,5.227,3.515,8.634,3.229
		c0.49-0.041,1.063,0.317,1.525,0.606c3.583,2.25,7.552,3.141,11.708,3.211c4.504,0.076,9.012-0.06,13.516,0.012
		c4.396,0.069,8.761,0.681,12.364,3.384c1.975,1.48,4.012,1.876,6.287,1.871c7.843-0.017,14.524-3.789,21.409-6.789
		c5.872-2.559,11.581-5.492,17.378-8.226c5.257-2.478,10.721-4.585,15.766-7.434c11.059-6.244,21.87-12.922,32.858-19.293
		c7.67-4.447,14.544-9.815,18.237-18.026c3.217-7.152,5.575-14.694,8.217-22.098c0.206-0.578-0.13-1.796-0.589-2.056
		c-0.628-0.356-1.861-0.416-2.406-0.018c-3.407,2.493-7.13,4.753-9.932,7.832c-6.169,6.781-13.36,12.103-21.404,16.253
		c-7.704,3.974-15.362,7.968-23.605,10.967c-8.488,3.089-16.885,6.176-25.818,7.574c-15.67,2.454-31.433,2.275-47.183,1.198
		c-7.425-0.507-14.806-1.658-22.205-2.533c-0.549-0.065-1.083-0.263-1.624-0.398c-4.844-1.215-9.646-2.655-14.543-3.583
		c-5.187-0.982-9.435-3.753-13.263-6.936c-3.378-2.808-3.59-7.206-2.323-11.217c2.099-6.645,4.439-13.228,7.024-19.7
		c1.24-3.105,2.636-6.057,3.407-9.392c1.684-7.276,3.989-14.404,5.94-21.619c2.909-10.757,6.725-21.332,6.441-32.734
		c-0.087-3.501-0.329-6.896-2.182-9.564c0.338-1.202,0.912-2.161,0.787-3.018c-0.322-2.193-0.793-4.396-1.492-6.499
		c-2.355-7.091-4.551-14.255-7.353-21.17c-2.677-6.606-7.727-10.791-15.01-11.779c-10.401-1.412-23.152,6.508-27.195,16.68
		c-4.024,10.126-7.875,20.341-12.436,30.225c-2.303,4.989-3.251,10.185-4.586,15.356c-0.858,3.33-1.427,6.756-2.563,9.986
		c-1.087,3.09-2.81,5.95-4.131,8.965c-2.613,5.959-5.061,11.991-7.781,17.898c-0.486,1.054-1.848,1.981-3.009,2.397
		c-3.587,1.283-6.588-0.473-9.424-2.388c-4.707-3.18-9.433-6.341-14.007-9.705c-6.12-4.502-12.402-8.855-18.06-13.896
		c-5.631-5.015-10.568-10.809-15.825-16.246c-1.171-1.212-2.224-2.699-3.649-3.478c-7.66-4.19-13.826-10.193-20.083-16.107
		c-5.324-5.032-10.619-10.135-17.252-13.453c-2.072-1.035-3.918-2.057-5.055-4.196c-0.359-0.677-1.346-1.029-2.066-1.5
		c-0.769-0.503-1.625-0.892-2.324-1.472c-0.978-0.811-1.812-1.794-2.77-2.631c-1.024-0.896-2.205-1.624-3.173-2.573
		c-2.623-2.575-4.977-5.458-7.78-7.81c-12.012-10.085-24.228-19.927-36.204-30.054c-6.009-5.082-11.65-10.597-17.478-15.893
		c-2.332-2.119-4.901-3.795-8.302-4.19c-0.052,0.923-0.127,1.555-0.117,2.185c0.169,11.428,0.461,22.855,0.488,34.282
		c0.021,8.91,0.59,17.649,4.261,25.969c2.391,5.419,4.142,11.13,6.679,16.473c3.541,7.458,7.699,14.621,11.318,22.045
		c4.142,8.501,7.91,17.185,12.007,25.709c1.095,2.279,3.111,4.122,4.16,6.414c3.015,6.594,6.842,12.675,12.082,17.608
		c7.251,6.831,14.811,13.346,22.448,19.749c7.974,6.685,14.743,14.805,24.018,19.977c1.601,0.893,2.787,2.907,3.642,4.659
		c0.9,1.84,1.351,3.965-0.156,5.928c-3.763,4.897-5.315,10.549-5.628,16.632c-0.293,5.684,0.556,11.207,1.939,16.704
		c1.737,6.903,2.834,14.003,5.058,20.737c1.689,5.116,4.446,9.949,7.206,14.625c2.937,4.978,6.235,9.776,9.744,14.371
		c4.027,5.277,7.39,11.192,13.141,14.963c2.487,1.631,5.018,3.193,7.52,4.802c0.537,0.346,1.362,0.665,1.492,1.148
		c0.642,2.391,2.6,2.192,4.382,2.61c1.05,0.245,2.364,0.846,2.856,1.693c1.126,1.94,2.75,2.673,4.763,2.73
		C228.451,330.833,231.577,330.766,234.6,330.766"/>
	<path d="M217.372,534.504c-0.187-1.102-0.377-2.203-0.565-3.305c-0.493-2.865-1.002-5.83-1.465-8.752
		c-0.074-0.467-0.108-0.969-0.139-1.453c-0.109-1.66-0.213-3.229-1.814-3.869c-1.849-0.736-3.054,0.672-4.217,2.039
		c-0.211,0.248-0.418,0.49-0.626,0.717c-1.369,1.494-2.656,3.031-4.02,4.658c-0.587,0.701-1.182,1.412-1.795,2.131l-0.247,0.291
		l-0.156-0.348c-0.373-0.828-0.726-1.639-1.071-2.432c-0.832-1.906-1.617-3.709-2.526-5.447c-0.532-1.021-1.421-1.945-2.319-2.414
		c-0.487-0.252-0.957-0.381-1.383-0.381c-0.347,0-0.666,0.086-0.942,0.256c-0.7,0.434-1.088,1.375-1.064,2.582
		c0.114,5.744,0.137,11.723,0.072,18.279c-0.027,2.57,0.338,3.072,2.288,3.158c0.744,0.035,1.268-0.096,1.59-0.393
		c0.484-0.449,0.508-1.271,0.538-2.225l0.01-0.354c0.062-1.611,0.249-3.25,0.449-4.986c0.091-0.803,0.188-1.641,0.279-2.531
		l0.04-0.396l0.333,0.221c5.404,3.572,7.742,0.385,10.218-2.988c0.221-0.303,0.443-0.605,0.668-0.902l0.081-0.107l1.179,0.109
		l0.026,0.189c0.072,0.52,0.134,1.039,0.196,1.561c0.136,1.139,0.277,2.314,0.53,3.441c0.528,2.34,1.075,4.76,1.991,7.006
		c0.207,0.506,1.772,1.025,2.46,0.814c0.566-0.174,1.195-0.986,1.728-2.23c0.125-0.293-0.012-0.762-0.144-1.217
		C217.484,534.988,217.412,534.742,217.372,534.504"/>
	<path d="M542.884,516.955c-0.146,0-0.296,0.006-0.456,0.02c-2.075,0.172-4.148,0.365-6.221,0.559
		c-2.268,0.211-4.611,0.428-6.921,0.615c-2.007,0.162-2.396,1.396-2.373,3.334l0.018,1.607c0.03,3.104,0.062,6.313,0.343,9.441
		c0.48,5.352,3.16,7.701,8.684,7.596c1.778-0.033,3.692-0.23,5.692-0.59l0.181-0.031c1.492-0.262,2.46-0.551,2.293-2.104
		c-0.165-1.533-1.088-2.189-3.041-2.158c-0.735,0.008-1.472,0.027-2.208,0.047c-1.491,0.041-3.033,0.08-4.549,0.018
		c-0.872-0.039-1.603-0.383-2.111-0.996c-0.595-0.717-0.831-1.742-0.666-2.885c0.122-0.844,0.445-1.465,0.961-1.846
		c0.583-0.43,1.393-0.553,2.478-0.383c0.783,0.123,1.565,0.266,2.347,0.408c1.552,0.281,3.157,0.572,4.742,0.707
		c0.766,0.055,2.091-0.572,2.17-0.82c0.057-0.811-0.376-1.918-1.029-2.623c-0.414-0.447-1.367-0.57-2.134-0.668l-0.171-0.021
		c-2.312-0.305-4.668-0.572-6.946-0.83c-0.862-0.098-1.724-0.195-2.585-0.295l-0.143-0.018l-0.458-1.135l0.215-0.094
		c0.469-0.203,0.942-0.438,1.4-0.664c1.045-0.514,2.124-1.045,3.262-1.287c1.459-0.309,2.972-0.436,4.436-0.559
		c0.896-0.076,1.825-0.154,2.727-0.273c0.917-0.121,1.559-0.414,1.908-0.871c0.286-0.377,0.387-0.885,0.302-1.512
		C544.872,517.498,544.187,516.955,542.884,516.955"/>
	<path d="M57.41,536.76c-0.277-0.166-0.559-0.328-0.839-0.492c-0.892-0.52-1.814-1.057-2.649-1.693
		c-2.955-2.25-3.39-4.154-1.786-7.828c0.772-1.771,1.092-3.785,0.857-5.389c-0.527-3.604-2.249-5.822-5.115-6.596
		c-3.386-0.91-5.538,1.086-7.202,3.158c-2.386,2.973-3.544,6.297-3.444,9.879c0.067,2.379,0.287,4.799,0.5,7.137
		c0.138,1.514,0.28,3.078,0.379,4.619c0.05,0.756,0.156,1.572,0.577,1.887c0.208,0.156,0.493,0.193,0.87,0.107
		c0.536-0.117,1.306-1.332,1.399-2.199c0.162-1.516,0.13-3.086,0.099-4.604c-0.011-0.547-0.023-1.094-0.026-1.641h-0.045v-0.24
		c0-0.541-0.019-1.084-0.04-1.625c-0.045-1.227-0.092-2.494,0.1-3.715c0.369-2.359,0.932-4.309,1.722-5.961
		c0.47-0.984,1.937-2.158,2.912-2.158c0.054,0,0.107,0.004,0.159,0.012c1.153,0.174,2.326,1.502,2.98,2.588
		c1.3,2.16-0.297,3.611-1.611,4.516c-1.777,1.225-2.616,2.238-2.719,3.293c-0.101,1.037,0.533,2.219,1.999,3.723
		c2.485,2.545,5.145,4.971,7.879,7.439c0.609,0.549,1.22,0.801,1.804,0.734c0.702-0.076,1.398-0.588,2.071-1.521
		c0.501-0.697,0.69-1.299,0.578-1.84C58.701,537.777,58.24,537.258,57.41,536.76"/>
	<path d="M131.917,530.877c-1.159-1.027-1.766-1.594-1.8-2.268c-0.035-0.664,0.51-1.293,1.557-2.438
		c1.425-1.559,1.971-3.512,1.496-5.361c-0.468-1.824-1.865-3.254-3.835-3.924c-0.952-0.324-1.999-0.463-3.011-0.596
		c-0.473-0.061-0.947-0.123-1.415-0.205c-0.077,0-0.152-0.002-0.227-0.002c-1.737,0-2.949,0.387-3.703,1.18
		c-0.819,0.859-1.148,2.256-1.008,4.271c0.204,2.957,0.132,5.713-0.215,8.191c-0.483,3.461,0.536,6.656,2.726,8.543
		c1.961,1.691,4.572,2.172,7.354,1.352c2.468-0.727,3.84-1.932,4.318-3.791C134.669,533.826,133.632,532.4,131.917,530.877
		 M126.101,521.045c0.367-0.25,1.105-0.057,1.25-0.016c0.258,0.074,0.711,0.244,0.839,0.537c0.877,2.016-0.389,3.113-1.729,4.277
		c-0.174,0.15-0.351,0.305-0.526,0.463l-0.239,0.215l-0.14-0.289C124.709,524.48,123.984,522.492,126.101,521.045 M126.422,537.557
		l-0.17-0.252c-0.374-0.555-0.751-1.025-1.083-1.443c-0.651-0.816-1.165-1.463-1.224-2.178c-0.051-0.643,0.124-1.135,0.525-1.467
		c0.626-0.516,1.651-0.479,2.401-0.27c0.713,0.197,1.303,0.756,1.874,1.295c0.24,0.227,0.487,0.461,0.734,0.656l0.204,0.164
		L126.422,537.557z"/>
	<path d="M279.862,532.645c-0.296-0.168-0.576-0.326-0.828-0.498c-1.863-1.268-2.714-1.986-2.831-2.898
		c-0.116-0.912,0.553-1.861,2.003-3.518c1.803-2.063,1.769-3.949-0.104-5.609c-2.311-2.051-4.626-3.08-6.914-3.08
		c-1.014,0-2.021,0.201-3.021,0.605c-3.681,1.488-6.743,3.049-6.935,7.117c-0.123,2.629-0.095,5.313-0.066,7.908
		c0.014,1.295,0.027,2.59,0.023,3.885c-0.003,0.855,0.15,1.41,0.483,1.744c0.275,0.275,0.688,0.408,1.261,0.408h0.011
		c1.36-0.002,1.613-0.762,1.622-2.256c0.009-1.377,0.007-2.752,0.005-4.295l-0.002-2.492l0.284,0.051
		c0.614,0.109,1.167,0.174,1.653,0.23c0.953,0.111,1.707,0.199,2.347,0.543c1.799,0.967,3.569,2.051,5.282,3.1
		c0.912,0.559,1.824,1.117,2.744,1.66c0.244,0.145,0.492,0.311,0.745,0.479c0.839,0.559,1.708,1.135,2.484,0.971
		c0.44-0.092,0.834-0.416,1.201-0.988c0.354-0.551,0.476-1.018,0.375-1.424C281.512,533.58,280.674,533.105,279.862,532.645
		 M273.152,524.945c-0.896,0.393-1.886,0.564-3.029,0.766c-0.514,0.09-1.063,0.186-1.655,0.311l-0.087,0.02L268.305,526
		c-0.192-0.104-0.477-0.211-0.777-0.326c-0.859-0.33-1.748-0.672-1.839-1.266c-0.114-0.738,0.042-1.406,0.451-1.934
		c0.521-0.67,1.428-1.1,2.555-1.209c1.431-0.139,2.785-0.127,4.025,0.037c0.56,0.072,1.404,0.621,1.678,1.002
		c0.095,0.131,0.129,0.25,0.106,0.365C274.367,523.355,273.93,524.607,273.152,524.945"/>
	<path d="M241.43,519.633c-1.089-1.275-2.025-1.9-2.853-1.9c-0.061,0-0.123,0.004-0.184,0.012c-0.888,0.102-1.737,0.961-2.596,2.621
		c-2.145,4.152-4.294,8.404-6.386,12.637c-0.394,0.797-0.635,1.656-0.68,2.418c-0.037,0.621-0.009,1.754,0.589,2.357
		c0.281,0.283,0.651,0.408,1.126,0.383c0.932-0.049,2.167-1.1,2.695-2.012c0.505-0.873,0.691-1.973,0.828-2.775
		c0.053-0.305,0.099-0.576,0.152-0.789l0.056-0.223l0.226,0.045c0.768,0.152,1.516,0.35,2.239,0.541
		c1.566,0.412,3.046,0.801,4.465,0.686c2.697-0.223,4.409-0.146,5.377,2.82c0.267,0.818,0.762,1.322,1.358,1.387
		c0.695,0.074,1.436-0.434,1.976-1.357c0.943-1.617,1.68-4.059-0.163-6.516C246.735,526.074,244.044,522.693,241.43,519.633
		 M243.633,530.311c-0.564-0.035-1.097-0.047-1.604-0.057c-1.14-0.025-2.126-0.047-3.077-0.309c-0.885-0.24-2.517-1.207-2.526-2.053
		c-0.012-1.07,0.837-2.52,1.78-3.043c0.719-0.4,2.41,0.209,3.1,0.938c0.721,0.76,1.231,1.725,1.773,2.746
		c0.242,0.457,0.494,0.93,0.778,1.414l0.229,0.391L243.633,530.311z"/>
	<path d="M491.49,535.146c0.002-0.119,0.004-0.24,0.005-0.361c0.016-4.635-2.149-8.344-4.442-12.27l-0.403-0.693
		c-1.32-2.27-3.342-3.521-5.551-3.4c-2.257,0.111-4.254,1.602-5.34,3.986c-1.69,3.711-3.55,7.418-5.348,11.004l-0.224,0.447
		c-0.589,1.172-0.326,1.975,0.878,2.686c0.705,0.416,1.249,0.543,1.707,0.396c0.593-0.189,1.136-0.871,1.707-2.145
		c1.129-2.518,1.946-3.441,3.739-3.441c0.624,0,1.367,0.109,2.282,0.307l0.144,0.031c0.717,0.154,1.459,0.313,2.18,0.328
		c4.002,0.08,4.092,0.152,4.804,3.928l0.051,0.266c0.137,0.727,1.132,1.756,1.806,1.869c0.602,0.1,1.111-0.02,1.472-0.348
		c0.401-0.363,0.593-0.977,0.542-1.727C491.478,535.721,491.484,535.43,491.49,535.146 M484.151,527.068
		c-0.152,0.537-0.709,0.914-1.414,1.389c-0.358,0.242-0.766,0.516-1.185,0.854l-0.188,0.152l-0.151-0.189
		c-0.32-0.396-0.671-0.76-1.01-1.109c-0.738-0.76-1.319-1.359-1.238-1.975c0.146-1.117,1.341-2.357,2.319-2.771
		c0.462-0.193,1.03-0.023,1.604,0.484C483.738,524.654,484.444,526.047,484.151,527.068"/>
	<path d="M357.101,525.283c-0.628-0.027-1.27-0.021-1.949-0.014c-0.335,0.004-0.684,0.008-1.05,0.008h-0.309l1.572-6.355
		l0.302,0.295c0.514,0.504,0.961,0.943,1.365,1.344c0.788,0.777,1.412,1.393,2.05,1.994c1.12,1.055,2.366,1.119,3.603,0.182
		c1.079-0.818,1.172-1.871,0.295-3.314c-1.119-1.842-3.069-2.936-5.226-2.936h-0.065c-2.327,0.025-4.445,1.293-5.665,3.395
		c-2.835,4.887-3.057,10.234-0.639,15.461c0.671,1.449,2.28,2.965,4.305,4.053c2.891,1.555,5.889,0.697,7.827-2.234
		c1.782-2.697,0.955-5.305-0.206-7.721C362.031,526.773,359.999,525.414,357.101,525.283 M360.903,534.316l-0.079,0.068
		c-0.148,0.129-0.325,0.33-0.531,0.563c-0.575,0.65-1.361,1.541-2.321,1.744c-0.167,0.035-0.339,0.053-0.51,0.053
		c-0.726,0-1.479-0.313-2.168-0.908c-1.203-1.041-1.947-2.727-1.852-4.191c0.145-2.219,1.871-2.33,3.259-2.42
		c0.191-0.012,0.381-0.025,0.561-0.043c0.761-0.07,1.524,0.207,2.148,0.789c0.998,0.932,1.543,2.477,1.496,4.24L360.903,534.316z"/>
	<path d="M307.021,529.693c-0.332-0.277-0.663-0.553-0.991-0.83c-1.592-1.344-2.355-2.023-2.311-2.754
		c0.046-0.744,0.944-1.332,2.573-2.395c0.666-0.436,1.439-1.643,1.321-2.281c-0.099-0.525-0.349-0.896-0.743-1.1
		c-0.519-0.27-1.291-0.23-2.017,0.104c-0.915,0.42-1.783,1.004-2.623,1.568c-0.527,0.355-1.073,0.723-1.632,1.051
		c-0.941,0.553-1.896,1.057-3.002,1.643c-0.52,0.275-1.069,0.566-1.66,0.887l-0.377,0.203l0.155-3.076
		c0.098-1.895,0.183-3.553,0.253-5.213c0.031-0.729-0.113-1.268-0.431-1.605c-0.295-0.313-0.763-0.479-1.392-0.49h-0.095
		c-1.398,0-1.993,0.6-2.046,2.047c-0.222,6.068-0.511,12.643-0.908,20.691c-0.051,1.039,0.116,1.75,0.513,2.168
		c0.327,0.348,0.822,0.518,1.512,0.523c0.628,0,1.049-0.141,1.347-0.439c0.385-0.387,0.552-1.043,0.539-2.129
		c-0.026-2.205-0.021-4.457-0.016-6.635c0.002-0.924,0.004-1.85,0.004-2.779v-0.26l0.259,0.018c3.512,0.242,7.112,0.938,9.655,4.346
		c0.988,1.324,2.414,2.521,3.912,3.287c0.426,0.215,1.186-0.051,1.921-0.311c0.279-0.1,0.566-0.201,0.844-0.277
		c-0.055-0.242-0.098-0.492-0.14-0.734c-0.119-0.699-0.232-1.357-0.597-1.752C309.688,531.91,308.332,530.783,307.021,529.693"/>
	<path d="M423.031,516.932c-1.186-0.025-1.915,0.18-2.301,0.623c-0.397,0.455-0.493,1.244-0.301,2.482
		c0.287,1.855,0.479,3.719,0.681,5.691c0.091,0.883,0.183,1.787,0.287,2.719l0.039,0.344l-0.336-0.082
		c-3.015-0.734-4.358-2.506-5.658-4.223c-0.168-0.223-0.337-0.445-0.51-0.664l-0.144-0.186c-1.075-1.375-2.187-2.795-3.58-3.691
		c-0.656-0.422-1.332-0.637-1.967-0.637c-0.454,0-0.888,0.109-1.278,0.332c-0.934,0.531-1.464,1.645-1.417,2.98
		c0.098,2.854,0.278,5.75,0.454,8.555c0.125,2.002,0.254,4.07,0.353,6.109c0.046,0.967,0.244,1.574,0.622,1.91
		c0.299,0.268,0.729,0.375,1.309,0.336c1.396-0.096,1.647-0.969,1.622-2.545c-0.041-2.434-0.033-4.814-0.025-7.336
		c0.003-1.004,0.006-2.016,0.006-3.033v-0.521l0.398,0.338c0.688,0.582,1.368,1.178,2.05,1.775c1.514,1.328,3.078,2.701,4.718,3.912
		c1.755,1.299,3.838,1.266,5.122,0.658c1.01-0.479,1.593-1.291,1.642-2.285c0.154-3.203,0.157-6.467,0.159-9.625l0.002-1.934
		C424.981,517.57,424.381,516.953,423.031,516.932"/>
	<path d="M455.313,533.453c-1.173,0.07-2.364,0.252-3.517,0.43c-1.108,0.17-2.255,0.346-3.393,0.424
		c-0.781,0.051-1.566-0.146-2.329-0.34c-0.335-0.084-0.68-0.172-1.015-0.234l-0.261-0.049l0.073-0.256
		c0.114-0.395,0.194-0.836,0.271-1.264c0.18-0.986,0.364-2.006,0.98-2.65c1.246-1.299,2.641-2.486,3.99-3.635
		c1.104-0.941,2.247-1.914,3.296-2.939c0.774-0.756,1.356-2.039,1.354-2.984c-0.001-0.443-0.119-0.775-0.361-1.016
		c-0.463-0.459-1.336-0.531-2.154-0.531c-0.036,0-0.072,0-0.108,0c-2.485,0.018-4.97,0.025-7.454,0.033l-2.423,0.008
		c-1.453,0.006-2.409,0.125-2.454,1.701c-0.042,1.457,0.693,2.311,2.187,2.539c0.783,0.121,1.596,0.148,2.455,0.18
		c0.408,0.014,0.83,0.029,1.27,0.055l0.392,0.021l-0.196,0.34c-0.567,0.982-1.148,1.93-1.71,2.846
		c-1.232,2.012-2.397,3.912-3.287,5.938c-0.795,1.809-0.837,3.344-0.123,4.436c0.732,1.121,2.205,1.715,4.263,1.715h0.002
		c3.761,0,7.632-0.164,11.509-0.486c0.544-0.045,1.458-1.02,1.576-1.682c0.146-0.822,0.021-1.463-0.372-1.904
		C457.31,533.625,456.464,533.385,455.313,533.453"/>
	<path d="M21.879,522.613c-0.097-0.391-0.162-0.795-0.226-1.184c-0.119-0.734-0.231-1.426-0.53-2.029
		c-0.642-1.297-1.457-2.273-1.897-2.273h-0.004c-0.923,0.014-2.345,0.939-2.668,1.742c-1.892,4.672-3.662,9.484-5.374,14.139
		c-0.493,1.336-0.984,2.672-1.478,4.008c-0.036,0.094-0.042,0.229-0.053,0.492c-0.006,0.168-0.016,0.383-0.037,0.672
		c0.121,0.105,0.251,0.234,0.386,0.369c0.423,0.422,0.948,0.949,1.479,1.014c0.548,0.066,1.539-0.674,2.014-1.357
		c0.208-0.299,0.249-0.736,0.292-1.201c0.042-0.447,0.085-0.908,0.283-1.305c0.125-0.246,0.247-0.502,0.37-0.758
		c0.618-1.287,1.256-2.615,2.304-3.428c1.209-0.936,2.371-1.236,3.357-0.875c1.054,0.387,1.83,1.529,2.182,3.213
		c0.184,0.877,0.537,1.746,0.878,2.586c0.163,0.4,0.326,0.801,0.473,1.205c0.253,0.697,0.662,1.16,1.152,1.303
		c0.41,0.119,0.856,0.006,1.287-0.326c0.543-0.416,0.937-1.707,0.766-2.51c-0.201-0.947-0.739-1.863-1.259-2.75
		c-0.166-0.281-0.332-0.564-0.487-0.846c-0.546-0.994-0.7-1.828-0.472-2.549c0.222-0.699,0.793-1.266,1.744-1.73
		c0.288-0.141,0.524-0.436,0.774-0.746c0.06-0.076,0.121-0.15,0.182-0.225c-0.08-0.053-0.158-0.105-0.238-0.16
		c-0.324-0.225-0.63-0.436-0.934-0.471C23.881,526.367,22.485,525.053,21.879,522.613 M19.414,525.867
		c-0.219,0.514-0.6,0.936-1.082,1.469c-0.211,0.234-0.441,0.488-0.687,0.785l-0.221,0.266l-0.174-0.301
		c-0.177-0.309-0.359-0.586-0.513-0.822c-0.37-0.563-0.554-0.844-0.386-1.08c0.382-0.533,0.867-0.992,1.335-1.436
		c0.168-0.16,0.336-0.318,0.499-0.48l0.208-0.207l0.164,0.244c0.089,0.137,0.213,0.285,0.336,0.436
		C19.247,525.17,19.553,525.543,19.414,525.867"/>
	<path d="M382.924,517.613c-0.99,0-2.029,0.381-3.162,1.137c-4.14,2.766-6.388,8.559-5.229,13.475
		c0.667,2.826,2.297,5.045,4.473,6.09c1.853,0.889,3.966,0.857,5.95-0.088c3.631-1.729,5.504-4.709,5.727-9.111
		c-0.29-3.863-1.685-7.115-4.145-9.664C385.353,518.223,384.177,517.613,382.924,517.613 M387.524,530.063
		c-0.461,1.641-1.489,2.971-2.751,3.557c-0.818,0.381-1.932,0.648-2.965,0.648c-0.641,0-1.251-0.104-1.74-0.344
		c-0.893-0.439-1.392-1.545-1.831-2.52c-0.163-0.361-0.317-0.703-0.473-0.963l-0.052-0.084l0.024-0.096
		c0.151-0.625,0.273-1.174,0.384-1.672c0.217-0.98,0.39-1.756,0.652-2.512c0.939-2.707,2.283-3.922,4.016-3.598
		c1.655,0.309,3.334,1.854,4.263,3.25C387.795,526.848,387.973,528.467,387.524,530.063"/>
	<path d="M563.253,521.486c0.516,0.189,1.013,0.438,1.494,0.68c0.551,0.275,1.12,0.561,1.7,0.744
		c0.338,0.109,0.758,0.031,1.203-0.051c0.135-0.025,0.27-0.049,0.402-0.07c-0.012-0.201-0.013-0.412-0.014-0.617
		c-0.002-0.564-0.004-1.15-0.254-1.447c-2.223-2.645-4.739-3.881-7.476-3.672c-1.063,0.082-2.482,0.939-3.039,1.836
		c-1.912,3.088-1.465,6.047,1.328,8.795c0.373,0.367,0.752,0.729,1.132,1.09c1.058,1.012,2.153,2.057,3.096,3.205
		c0.522,0.637,0.748,1.33,0.654,2.002c-0.101,0.709-0.553,1.361-1.308,1.881c-0.586,0.406-1.113,0.555-1.615,0.453
		c-0.789-0.158-1.324-0.904-1.804-1.652c-0.136-0.213-0.25-0.453-0.361-0.684c-0.21-0.439-0.407-0.854-0.705-1.018
		c-0.514-0.281-1.207-0.486-1.725-0.486c-0.209,0-0.389,0.031-0.518,0.109c-0.484,0.283-0.939,1.461-0.799,2.066
		c0.64,2.73,3.606,5.041,6.479,5.043h0.003c2.371,0,4.444-1.049,5.548-2.809c1.013-1.615,1.074-3.619,0.167-5.498
		c-0.627-1.297-1.703-2.426-2.745-3.518c-0.379-0.396-0.757-0.793-1.115-1.199c-0.292-0.33-0.647-0.635-0.992-0.932
		c-0.574-0.494-1.169-1.004-1.517-1.664c-0.446-0.848,0.243-2.313,0.465-2.742C561.221,520.787,563.232,521.479,563.253,521.486"/>
	<path d="M159.548,517.166c-0.576-0.381-1.838-0.125-2.744,0.211c-0.303,0.113-0.543,0.6-0.774,1.07
		c-0.097,0.195-0.193,0.391-0.295,0.563c-0.78,1.32-1.343,1.859-1.946,1.861h-0.004c-0.595,0-1.154-0.525-1.924-1.811
		c-0.127-0.213-0.25-0.443-0.373-0.678c-0.396-0.752-0.805-1.531-1.445-1.721c-0.371-0.109-0.808-0.02-1.335,0.273
		c-0.58,0.324-0.909,0.672-1.007,1.063c-0.156,0.623,0.306,1.346,0.753,2.043c0.175,0.273,0.356,0.557,0.499,0.832
		c0.023,0.043,0.051,0.084,0.079,0.123l0.038,0.055c2.419,3.605,2.672,7.439,0.752,11.393c-0.406,0.834-0.686,1.729-0.933,2.518
		c-0.096,0.307-0.187,0.594-0.276,0.852c0.035,0.332,0.044,0.629,0.052,0.891c0.014,0.457,0.026,0.818,0.168,1.008
		c0.718,0.949,1.38,1.549,2.022,1.828c0.253-0.064,1.124-0.896,1.363-1.508c0.654-1.67,1.25-3.398,1.827-5.07
		c1.579-4.58,3.212-9.316,6.224-13.408c0.067-0.09,0.115-0.357,0.035-0.813C160.185,518.068,159.846,517.363,159.548,517.166"/>
	<path d="M515.446,532.686c-0.68,0.123-1.363,0.344-2.024,0.557c-0.76,0.246-1.546,0.5-2.35,0.615
		c-1.317,0.191-2.165,0.068-2.744-0.4c-0.579-0.467-0.877-1.271-0.968-2.605c-0.082-1.225-0.062-2.469-0.041-3.674
		c0.009-0.543,0.018-1.086,0.018-1.629v-0.242h0.078c0.005-0.416,0.019-0.834,0.033-1.254c0.04-1.164,0.081-2.369-0.112-3.502
		c-0.142-0.826-1.085-1.963-1.511-1.963h-0.002c-0.749,0-2.051,1-2.071,1.471c-0.23,5.232-0.267,10.371-0.107,15.268
		c0.026,0.828,1.013,1.99,1.876,2.479c2.364,1.334,10.297-0.059,11.954-2.098c0.354-0.438,0.362-1.236,0.369-2.01
		c0.003-0.293,0.006-0.594,0.026-0.881c-0.207-0.021-0.415-0.049-0.622-0.074C516.612,532.66,516.01,532.582,515.446,532.686"/>
	<path d="M84.407,517.553c-1.207-0.18-2.476-0.143-3.702-0.107c-0.437,0.012-0.872,0.025-1.308,0.029v0.041l-0.239,0.043
		c-0.633,0-1.266-0.008-1.897-0.016c-1.427-0.018-2.902-0.037-4.344,0.039c-0.906,0.049-1.546,0.303-1.903,0.758
		c-0.347,0.445-0.439,1.104-0.274,1.959c0.165,0.854,0.448,1.391,0.868,1.645c0.453,0.271,1.123,0.258,2.112-0.045
		c1.08-0.33,1.801-0.518,2.316-0.518c0.316,0,0.556,0.072,0.75,0.225c0.533,0.416,0.547,1.322,0.451,3.152
		c-0.022,0.436-0.088,0.869-0.151,1.289c-0.043,0.289-0.086,0.578-0.116,0.869c-0.085,0.828-0.178,1.656-0.27,2.482
		c-0.232,2.082-0.472,4.232-0.587,6.35c-0.06,1.129,0.164,1.949,0.668,2.443c0.433,0.422,1.078,0.605,1.922,0.541
		c1.994-0.154,1.924-1.383,1.834-2.939l-0.106-2.006c-0.151-2.889-0.307-5.879-0.253-8.818c0.067-3.543,0.94-4.063,4.351-4.578
		c0.43-0.064,0.86-0.516,1.275-0.951c0.144-0.15,0.29-0.305,0.441-0.447c-0.16-0.146-0.316-0.303-0.468-0.457
		C85.331,518.086,84.869,517.621,84.407,517.553"/>
	<path d="M121.81,422.615c-2.282-0.557-3.985,0.406-4.797,2.715c-0.611,1.736-0.999,3.658-1.122,5.553
		c-0.315,4.852-0.546,9.662-0.789,14.754c-0.093,1.941-0.188,3.908-0.288,5.914l-0.022,0.424l-0.352-0.234
		c-0.954-0.629-1.857-1.244-2.73-1.842c-1.81-1.238-3.521-2.406-5.296-3.416c-5.233-2.975-11.547-7.451-13.96-15.719
		c-0.295-1.01-1.006-1.854-1.951-2.314c-0.94-0.459-2.037-0.5-3.009-0.113c-1.697,0.676-3.399,1.996-4.441,3.451
		c-0.984,1.371-1.746,2.949-2.483,4.475c-0.466,0.965-0.948,1.961-1.485,2.908c-1.522,2.68-3.097,5.328-4.765,8.133
		c-0.732,1.229-1.48,2.488-2.249,3.793l-0.309,0.523l-0.135-0.594c-0.081-0.354-0.145-0.6-0.193-0.781
		c-0.076-0.291-0.114-0.438-0.103-0.602l0.432-5.723c0.606-8.037,1.232-16.348,1.895-24.518c0.2-2.479-1.086-4.576-3.202-5.218
		c-2.282-0.692-3.635,0.17-4.535,2.88c-0.897,2.703-1.459,5.275-1.67,7.641c-0.475,5.352-0.894,10.59-0.808,15.855
		c0.074,4.502,0.298,10.41,1.382,16.195c0.382,2.045,1.297,3.457,2.644,4.08c1.485,0.688,3.478,0.395,5.615-0.822
		c3.418-1.947,6.211-4.926,8.538-9.107c0.823-1.477,1.606-3.01,2.362-4.494c0.507-0.99,1.012-1.982,1.533-2.967
		c0.717-1.352,1.327-2.223,2.155-2.387c0.095-0.02,0.19-0.027,0.287-0.027c0.759,0,1.599,0.561,2.668,1.445
		c0.565,0.469,1.116,0.971,1.649,1.455c0.753,0.686,1.531,1.393,2.351,2.008c1.574,1.182,3.141,2.371,4.708,3.561
		c4.746,3.6,9.651,7.322,14.655,10.715c2.116,1.436,4.143,1.826,5.708,1.102c1.645-0.764,2.713-2.695,3.007-5.441
		c1.009-9.422,1.918-18.855,2.835-28.494C125.809,424.564,124.868,423.361,121.81,422.615"/>
	<path d="M438.8,439.65c-4.006-1.262-8.332-1.57-13.229-0.941c-0.966,0.125-2.739-0.287-3.111-1.092
		c-0.548-1.178-0.198-2.855,0.06-3.75c0.252-0.877,1.002-1.615,1.813-2.359c3.851-3.521,10.487-4.27,15.113-1.701
		c0.242,0.135,0.483,0.277,0.726,0.422c0.783,0.463,1.592,0.943,2.425,1.111c0.844,0.174,2.131-0.01,2.587-0.512
		c0.452-0.5,0.492-1.84,0.208-2.588c-1.11-2.922-3.29-4.781-6.304-5.379c-1.394-0.275-2.845-0.418-4.249-0.553
		c-0.645-0.064-1.29-0.127-1.935-0.201l-0.141-0.018l-0.175-0.43c-1.04,0.283-2.106,0.541-3.141,0.789
		c-2.468,0.594-5.021,1.209-7.332,2.234c-4.264,1.891-7.041,5.365-7.822,9.787c-0.619,3.51,0.197,6.576,2.302,8.633
		c2.253,2.205,5.817,3.02,9.775,2.232c6.551-1.303,12.252,0.578,17.937,5.92c0.958,0.9,1.486,1.943,1.489,2.936
		c0.003,0.838-0.368,1.637-1.073,2.307l-0.111,0.105c-2.123,2.02-4.318,4.109-6.918,5.205c-3.811,1.607-7.744,0.809-12.38-2.516
		c-2.176-1.561-4.379-2.824-6.547-3.756c-0.324-0.139-0.639-0.209-0.939-0.209c-0.258,0-0.507,0.053-0.744,0.154
		c-0.646,0.279-1.187,0.945-1.522,1.873c-1.148,3.166,0.139,5.891,3.441,7.289c0.977,0.412,2.009,0.766,3.006,1.107
		c1.629,0.559,3.313,1.135,4.821,1.992c10.241,5.82,19.227,0.746,24.96-4.537c3.479-3.203,4.019-7.508,1.482-11.807
		C449.816,445.543,444.946,441.59,438.8,439.65"/>
	<path d="M220.469,462.467c-4.665-2.826-7.765-6.814-9.48-12.195c-0.71-2.229-1.744-4.404-2.745-6.51
		c-0.211-0.443-0.421-0.885-0.629-1.328c-1.122-2.396-2.357-4.793-3.549-7.109l-0.392-0.76c-0.3-0.584-0.605-1.133-1.033-1.428
		c-4.119-2.848-8.185-4.125-12.436-3.922c-0.597,0.037-1.195,0.074-1.792,0.109c-1.303,0.078-2.652,0.158-3.973,0.266
		c-6.271,0.512-10.056,3.371-11.57,8.738c-0.704,2.492-1.392,5.176-1.656,7.922c-0.468,4.85,0.887,9.125,3.815,12.041
		c2.772,2.762,6.74,4.033,11.171,3.59c6.738-0.68,11.143-3.066,13.862-7.512c0.414-0.676,1.084-1.182,1.731-1.674
		c0.287-0.215,0.585-0.441,0.849-0.674l0.197-0.174l0.157,0.209c0.226,0.305,0.468,0.602,0.712,0.898
		c0.533,0.652,1.084,1.326,1.463,2.086c0.741,1.482,1.45,3.008,2.134,4.484c1.135,2.445,2.308,4.975,3.654,7.346
		c0.865,1.525,2.431,3.059,4.298,4.209c0.879,0.541,1.943,0.67,3.078,0.373c1.779-0.463,3.48-1.881,4.548-3.795
		C224.063,465.551,223.476,464.289,220.469,462.467 M200.857,445.584l-0.104,0.072c-0.932,0.645-1.834,1.291-2.722,1.926
		c-2.022,1.447-3.932,2.816-5.974,4.012c-2.159,1.262-5.02,2.814-8.014,3.619c-0.531,0.143-1.042,0.215-1.527,0.215
		c-0.814,0-1.553-0.201-2.181-0.598c-1.055-0.666-1.766-1.848-2.056-3.422c-1.001-5.422-0.095-9.273,2.85-12.123
		c3.269-3.162,7.608-4.131,12.549-2.803c4.05,1.088,7.203,5.031,7.18,8.977L200.857,445.584z"/>
	<path d="M342.186,428.633c-2.021-0.238-4.112-0.121-5.911,0.008c-1.188,0.084-2.392,0.301-3.556,0.51
		c-0.528,0.096-1.057,0.191-1.586,0.275l-0.243,0.037l-0.033-0.242c-0.077-0.551-0.174-1.1-0.271-1.648
		c-0.218-1.227-0.442-2.494-0.428-3.75c0.007-0.518,0.001-1.047-0.005-1.58c-0.023-2.244-0.049-4.566,0.813-6.476
		c1.837-4.067,1.299-6.327-2.302-9.674c-1.741-1.614-3.278-1.995-4.989-1.233c-1.963,0.875-2.128,2.586-2.13,4.412
		c-0.006,3.692-0.004,7.385-0.003,11.077l0.018,4.096l0.478,0.004l0.056,0.605c0.025,0.273,0.052,0.547,0.067,0.822
		c0.124,2.135-0.155,3.332-0.933,4.004c-0.786,0.678-2.039,0.777-4.196,0.332c-1.673-0.348-3.137-0.57-4.475-0.686
		c-0.134-0.012-0.264-0.018-0.393-0.018c-1.513,0-2.639,0.805-3.351,2.396c-0.687,1.533-0.375,2.908,0.978,4.328
		c2.182,2.287,5.042,2.613,7.784,2.752c3.283,0.166,4.068,0.869,4.424,3.957c0.185,1.611,0.345,3.254,0.5,4.842
		c0.283,2.889,0.575,5.877,1.024,8.785c0.59,3.814,1.422,7.59,2.473,11.221c0.418,1.449,1.064,2.389,1.971,2.871
		c0.938,0.5,2.145,0.5,3.686,0.004c2.989-0.961,4.043-3.145,3.314-6.871c-1.541-7.879-3.06-15.729-4.513-23.33
		c-0.292-1.527-0.001-2.797,0.821-3.574c0.814-0.771,2.089-0.99,3.59-0.617c1.097,0.273,2.125,0.842,3.119,1.391
		c0.271,0.148,0.54,0.297,0.811,0.439c2.064,1.092,4.113,0.852,6.262-0.736c1.651-1.219,2.254-2.627,1.844-4.305
		C346.262,430.453,344.632,428.922,342.186,428.633"/>
	<path d="M245.47,428.719c-3.712-0.264-7.484,0.006-10.685,0.303c-1.649,0.152-2.668,0.129-3.323-0.436
		c-0.644-0.553-0.828-1.574-0.906-2.938c-0.057-0.98-0.023-1.979,0.011-2.943c0.015-0.471,0.031-0.941,0.038-1.412
		c0.018-1.506,0.047-3.01,0.075-4.516c0.067-3.558,0.136-7.237,0.083-10.851c-0.022-1.584-0.45-2.764-1.272-3.508
		c-0.739-0.67-1.764-0.955-3.055-0.846c-2.569,0.216-4.22,2.395-4.309,5.685c-0.174,6.429-0.208,12.254-0.102,17.811l0.004,0.219
		c0.082,4.264-0.038,4.398-4.288,4.846c-1.618,0.17-2.954,1.018-3.57,2.266c-0.551,1.111-0.461,2.414,0.245,3.572
		c1.082,1.777,2.83,1.697,4.679,1.445c0.565-0.078,1.081-0.127,1.545-0.127c0.769,0,1.395,0.137,1.863,0.516
		c0.636,0.516,0.948,1.426,1.077,3.143c0.375,5.01,0.722,10.105,1.057,15.033c0.269,3.965,0.539,7.93,0.825,11.895
		c0.088,1.219,0.308,2.176,0.669,2.922c0.681,1.406,2.033,3.002,4.61,2.623c1.971-0.291,3.373-2.035,3.407-4.24
		c0.026-1.719-0.106-3.432-0.251-5.027c-0.609-6.664-1.234-13.326-1.866-20.074l-0.672-7.166l0.215-0.041
		c0.801-0.152,1.593-0.324,2.361-0.492c1.845-0.404,3.588-0.783,5.379-0.883c1.546-0.086,3.382,0.447,4.555,1.33
		c2.622,1.973,4.48,1.877,6.63-0.338c0.857-0.881,1.29-2.016,1.193-3.111c-0.087-0.969-0.591-1.828-1.418-2.422
		C248.906,429.977,247.124,428.836,245.47,428.719"/>
	<path d="M527.452,419.465c-2.19-0.063-4.437,0.102-6.606,0.26c-0.826,0.061-1.653,0.121-2.479,0.17
		c-1.749,0.102-2.715-0.096-3.327-0.688c-0.601-0.58-0.839-1.539-0.798-3.209c0.027-1.146,0.103-2.311,0.176-3.437
		c0.121-1.867,0.247-3.799,0.155-5.682c-0.113-2.313-0.583-4.804-1.359-7.206c-0.702-2.171-3.434-3.31-5.408-2.878
		c-2.285,0.5-2.456,2.218-2.436,4.243c0.049,4.901,0.083,9.803,0.117,14.705c0.021,3.075-0.402,3.524-3.484,3.692
		c-1.314,0.07-2.7,0.201-3.924,0.676c-1.854,0.719-2.759,2.271-2.688,4.617c0.052,1.721,1.05,2.791,2.969,3.182
		c1.474,0.299,3,0.395,4.412,0.279c1.453-0.119,2.432,0.104,3.08,0.707c0.623,0.58,0.92,1.523,0.905,2.883
		c-0.038,3.52-0.03,7.1-0.022,10.563c0.003,1.459,0.007,2.918,0.007,4.377v0.24l-0.256,0.002c-0.001,1.24-0.006,2.482-0.011,3.725
		c-0.012,3.049-0.023,6.203,0.03,9.303c0.049,2.85,1.033,4.137,3.508,4.584c1.733,0.316,3.165,0.035,4.143-0.805
		c1.045-0.898,1.567-2.432,1.51-4.432c-0.161-5.602-0.381-11.297-0.594-16.805c-0.146-3.799-0.293-7.598-0.423-11.395
		c-0.054-1.582,0.039-2.674,0.669-3.227c0.639-0.561,1.742-0.508,3.431-0.229c0.793,0.133,1.586,0.277,2.378,0.422
		c1.934,0.354,3.933,0.719,5.909,0.875c1.596,0.125,2.789-0.148,3.547-0.814c0.641-0.564,0.995-1.436,1.051-2.59
		c0.114-2.354-0.271-3.975-1.177-4.953C529.772,419.883,528.79,419.504,527.452,419.465"/>
	<path d="M492.063,432.609c0.533-3.299-0.01-5.74-1.761-7.92c-1.359-1.695-2.58-2.236-4.078-1.809
		c-1.948,0.551-3.145,1.945-3.371,3.92c-0.162,1.416-0.109,2.902-0.028,4.295c0.233,3.971,0.498,8.006,0.754,11.908l0.299,4.58
		l-0.864,0.475l-0.128-0.121c-0.195-0.182-0.396-0.359-0.598-0.539c-0.434-0.385-0.883-0.781-1.274-1.227l-2.663-3.029
		c-4.082-4.639-8.303-9.436-12.38-14.219c-1.554-1.82-2.948-2.83-5.104-2.238c-1.971,0.541-2.624,2.072-2.998,4.209
		c-0.058,0.33-0.106,0.629-0.116,0.922c-0.239,8.193-0.271,17.854,1.32,27.365c0.434,2.596,1.822,3.586,4.493,3.203
		c2.606-0.371,3.867-2.008,3.551-4.611c-0.164-1.352-0.332-2.701-0.499-4.053c-0.38-3.055-0.771-6.215-1.115-9.328
		c-0.06-0.533,0.046-1.07,0.168-1.691c0.06-0.311,0.126-0.646,0.179-1.02l0.057-0.406l0.328,0.248
		c0.247,0.186,0.44,0.324,0.597,0.434c0.262,0.188,0.435,0.309,0.576,0.471c1.653,1.873,3.303,3.75,4.954,5.627
		c3.022,3.438,6.148,6.992,9.243,10.471c1.136,1.277,2.125,2.205,3.112,2.922c2.266,1.646,4.508,1.73,6.668,0.25
		c1.74-1.195,2.235-2.854,1.648-5.549C491.188,447.682,490.871,439.98,492.063,432.609"/>
	<path d="M166.379,443.109c-0.129-0.783-0.259-1.568-0.395-2.354c-1.197-6.875-4.483-9.602-11.718-9.723l-0.238-0.002
		c-2.924-0.051-5.949-0.1-8.908,0.064c-1.63,0.092-3.375,0.445-5.049,1.02c-1.346,0.463-2.38,0.676-3.053,0.215
		c-0.683-0.471-0.855-1.531-0.903-2.977c-0.021-0.648-0.026-1.299-0.032-1.949c-0.015-1.646-0.03-3.348-0.311-4.963
		c-0.203-1.152-0.94-2.023-1.974-2.328c-1.085-0.316-2.236,0.035-3.08,0.947c-0.707,0.768-1.227,1.896-1.291,2.809
		c-0.666,9.428-1.309,19.572-1.965,31.008c-0.115,2.018,0.917,3.066,3.155,3.207c2.932,0.188,4.31-0.732,4.457-2.979
		c0.295-4.492,0.374-8.209,0.249-11.697c-0.123-3.443,1.436-5.336,4.633-5.623c1.57-0.143,3.169-0.25,4.716-0.354
		c0.755-0.051,1.511-0.102,2.266-0.156h0.016l1.63-0.006c0.669-0.002,1.35-0.004,2.033-0.004c0.709,0,1.423,0.002,2.131,0.012
		c3.553,0.047,5.488,1.734,6.094,5.313c0.119,0.705,0.236,1.412,0.352,2.121c0.346,2.102,0.704,4.277,1.146,6.393l0.237,1.15
		c0.51,2.477,1.036,5.039,1.901,7.422c0.337,0.926,0.977,1.621,1.853,2.01c1.205,0.533,2.816,0.461,4.417-0.197
		c1.134-0.467,1.837-1.063,2.09-1.773c0.226-0.637,0.1-1.402-0.375-2.275C167.997,452.91,167.175,447.928,166.379,443.109"/>
	<path d="M19.714,398.455c-3.539,0.695-6.248,2.612-7.834,5.544l-0.81,1.496c-2.851,5.263-5.8,10.705-8.192,16.269
		c-1.214,2.824-1.886,5.949-2.376,8.23c-0.184,0.855-0.343,1.594-0.502,2.203c0.044,0.621,0.086,1.227,0.126,1.816
		c0.421,6.199,0.726,10.678,3.652,14.518c0.935,1.225,1.934,2.438,2.9,3.611c1.296,1.572,2.635,3.199,3.842,4.883
		c1.838,2.561,4.163,3.367,7.538,2.609c2.43-0.543,4.328-3.211,3.979-5.598c-0.385-2.633-2.403-2.408-4.353-2.189l-0.078,0.01
		c-2.275,0.254-3.996-0.652-4.981-2.617c-0.248-0.494-0.503-0.99-0.759-1.486c-1.246-2.422-2.535-4.926-3.09-7.553
		c-2.326-10.998,4.868-28.345,14.523-35.021c1.346-0.931,2.105-2.261,2.031-3.558c-0.059-1.042-0.658-1.919-1.684-2.467
		C22.44,398.511,20.859,398.231,19.714,398.455"/>
	<path d="M577.979,433.582c-0.062-0.428-0.117-0.855-0.174-1.285c-0.119-0.904-0.243-1.842-0.405-2.754
		c-1.536-8.623-5.92-15.71-13.4-21.667c-0.786-0.627-1.521-0.94-2.211-0.94c-0.756,0-1.459,0.375-2.121,1.126
		c-1.182,1.345-0.43,2.34,0.521,3.601l0.078,0.103c0.419,0.557,0.841,1.112,1.262,1.669c2.457,3.24,4.996,6.589,7.166,10.095
		c1.292,2.086,1.757,4.785,1.92,6.682c0.505,5.873-1.893,11.098-4.558,15.869c-2.024,3.625-4.222,7.229-6.346,10.715
		c-1.286,2.109-2.615,4.291-3.893,6.455c-1.167,1.977-2.35,4.623-1.122,7.568c0.721,1.73,2.152,2.475,4.036,2.1
		c1.898-0.379,2.723-1.469,2.517-3.332c-0.068-0.633,0.179-1.422,0.736-2.348c1.253-2.08,2.568-4.174,3.841-6.199
		c2.677-4.258,5.444-8.662,7.779-13.188c1.562-3.025,2.58-6.406,3.565-9.676c0.422-1.4,0.857-2.846,1.33-4.25l-0.503-0.207
		L577.979,433.582z"/>
	<path d="M295.82,445.738l0.015-0.186c0.19-2.467,0.352-5.084,0.05-7.586c-0.091-0.766-0.507-1.457-1.203-2.004
		c-0.984-0.77-2.432-1.146-3.778-0.982c-1.94,0.236-2.965,1.383-3.131,3.506c-0.293,3.748-0.598,7.496-0.899,11.242l-0.369,4.574
		l0.281,0.016v0.229c0,0.639-0.019,1.281-0.038,1.924c-0.042,1.422-0.085,2.893,0.092,4.303c0.288,2.305,0.805,4.389,1.534,6.195
		c0.947,2.344,3.438,3.033,6.501,1.803c2.381-0.957,3.115-2.223,2.381-4.105C294.837,458.457,295.337,451.99,295.82,445.738"/>
	<path d="M399.685,442.342c-0.18-1.572-1.023-2.805-2.258-3.293c-1.08-0.428-2.258-0.199-3.232,0.627
		c-0.832,0.705-1.511,1.895-1.651,2.889c-0.437,3.109-0.744,6.293-1.042,9.371c-0.104,1.082-0.209,2.164-0.319,3.246l0.377,0.029
		v0.223c0,0.924-0.01,1.846-0.021,2.77c-0.021,2.096-0.044,4.264,0.054,6.387c0.104,2.25,1.893,3.697,4.563,3.697h0.061
		c2.537-0.02,3.851-1.215,4.019-3.65c0.042-0.613,0.088-1.227,0.135-1.84c0.181-2.393,0.368-4.869,0.291-7.289
		C400.525,451.26,400.197,446.83,399.685,442.342"/>
	<path d="M294.156,420.135c1.17-1.836,1.178-3.469,0.021-4.856c-1.924-2.307-4.453-3.617-7.52-3.894
		c-0.113-0.011-0.225-0.016-0.332-0.016c-1.29,0-2.097,0.743-2.46,2.26c-0.481,2.007-0.06,4.062,1.188,5.789
		c1.378,1.908,3.575,3.133,6.04,3.367c0.319-0.262,0.663-0.51,0.995-0.75C292.906,421.443,293.68,420.885,294.156,420.135"/>
	<path d="M394.895,418.033c-0.038,0-0.076,0-0.115,0.002c-0.93,0.014-1.687,0.318-2.249,0.902c-0.8,0.832-1.2,2.242-1.157,4.082
		c0.072,3.199,2.449,5.336,5.923,5.336h0.075c2.55-0.023,3.943-1.42,3.924-3.936c-0.014-1.789-0.688-3.424-1.898-4.605
		C398.218,418.662,396.623,418.033,394.895,418.033"/>
	<path fill="#FFF100" d="M234.6,330.766c-3.023,0-6.149,0.066-9.271-0.024c-2.013-0.058-3.637-0.79-4.763-2.73
		c-0.492-0.848-1.806-1.448-2.855-1.693c-1.783-0.418-3.741-0.22-4.383-2.61c-0.13-0.483-0.954-0.803-1.491-1.148
		c-2.502-1.608-5.034-3.171-7.521-4.802c-5.751-3.771-9.114-9.687-13.141-14.962c-3.508-4.596-6.807-9.394-9.744-14.371
		c-2.76-4.676-5.516-9.509-7.206-14.625c-2.223-6.735-3.321-13.834-5.057-20.738c-1.384-5.497-2.233-11.019-1.94-16.704
		c0.314-6.083,1.865-11.734,5.628-16.632c1.507-1.963,1.056-4.088,0.156-5.927c-0.855-1.752-2.041-3.767-3.642-4.66
		c-9.275-5.171-16.044-13.292-24.018-19.977c-7.637-6.402-15.197-12.918-22.448-19.748c-5.239-4.934-9.066-11.015-12.082-17.609
		c-1.049-2.292-3.065-4.134-4.16-6.414c-4.097-8.524-7.865-17.208-12.007-25.709c-3.619-7.423-7.776-14.587-11.317-22.045
		c-2.538-5.342-4.289-11.053-6.68-16.472c-3.671-8.321-4.239-17.06-4.261-25.97c-0.027-11.427-0.319-22.853-0.488-34.281
		c-0.01-0.631,0.065-1.263,0.117-2.186c3.401,0.396,5.97,2.072,8.302,4.191c5.828,5.296,11.469,10.81,17.478,15.892
		c11.976,10.127,24.193,19.969,36.204,30.054c2.803,2.353,5.158,5.235,7.781,7.811c0.967,0.949,2.148,1.676,3.172,2.573
		c0.958,0.837,1.792,1.819,2.77,2.631c0.699,0.58,1.556,0.968,2.324,1.471c0.72,0.471,1.707,0.824,2.067,1.5
		c1.136,2.139,2.982,3.161,5.054,4.197c6.633,3.317,11.928,8.421,17.252,13.453c6.257,5.914,12.423,11.917,20.083,16.106
		c1.425,0.779,2.478,2.267,3.65,3.479c5.257,5.436,10.193,11.23,15.824,16.246c5.658,5.041,11.94,9.393,18.06,13.896
		c4.575,3.365,9.3,6.526,14.007,9.705c2.836,1.915,5.837,3.671,9.424,2.388c1.161-0.416,2.522-1.343,3.009-2.396
		c2.721-5.908,5.168-11.94,7.781-17.899c1.32-3.015,3.044-5.875,4.131-8.965c1.137-3.229,1.705-6.656,2.563-9.986
		c1.335-5.171,2.284-10.366,4.586-15.356c4.562-9.883,8.412-20.099,12.437-30.225c4.043-10.172,16.794-18.092,27.195-16.68
		c7.283,0.989,12.333,5.173,15.01,11.78c2.802,6.915,4.997,14.079,7.353,21.169c0.699,2.103,1.17,4.306,1.492,6.499
		c0.125,0.857-0.449,1.816-0.786,3.018c1.852,2.668,2.094,6.064,2.181,9.564c0.283,11.402-3.532,21.977-6.441,32.734
		c-1.951,7.216-4.257,14.344-5.941,21.619c-0.771,3.335-2.167,6.287-3.406,9.393c-2.585,6.471-4.927,13.054-7.024,19.7
		c-1.267,4.011-1.055,8.408,2.323,11.217c3.828,3.182,8.076,5.954,13.263,6.935c4.897,0.928,9.699,2.368,14.543,3.583
		c0.541,0.135,1.075,0.333,1.624,0.399c7.399,0.875,14.78,2.025,22.205,2.533c15.75,1.076,31.513,1.256,47.182-1.198
		c8.935-1.399,17.331-4.486,25.819-7.575c8.243-2.999,15.901-6.993,23.605-10.966c8.044-4.151,15.235-9.473,21.404-16.253
		c2.802-3.079,6.524-5.339,9.932-7.832c0.545-0.399,1.778-0.338,2.405,0.017c0.459,0.26,0.795,1.479,0.59,2.057
		c-2.642,7.403-5,14.945-8.217,22.097c-3.693,8.211-10.567,13.58-18.237,18.026c-10.988,6.371-21.8,13.05-32.858,19.294
		c-5.045,2.848-10.509,4.955-15.766,7.433c-5.797,2.735-11.506,5.667-17.378,8.226c-6.885,3-13.566,6.772-21.409,6.789
		c-2.275,0.005-4.313-0.391-6.287-1.871c-3.604-2.702-7.968-3.315-12.364-3.384c-4.504-0.072-9.012,0.065-13.516-0.012
		c-4.156-0.07-8.125-0.961-11.708-3.211c-0.462-0.289-1.035-0.647-1.525-0.606c-3.408,0.286-5.982-1.556-8.634-3.228
		c-1.089-0.687-2.151-1.416-3.264-2.061c-4.958-2.874-9.74-0.563-10.368,5.138c-0.521,4.726-2.107,9.053-4.239,13.24
		c-9.414,18.484-24.081,32.152-40.697,43.91c-3.274,2.315-7.515,3.22-11.142,5.099c-5.418,2.806-10.669,5.933-16.035,8.842
		c-1.01,0.547-2.211,0.936-3.351,1.012c-1.918,0.129-3.856-0.086-5.787-0.096C237.31,325.822,236.254,326.539,234.6,330.766
		 M316.965,132.252c6.102-0.848,9.944-2.037,12.541-4.511c0.669-0.637,1.661-1.601,1.559-2.27
		c-0.602-3.943-1.218-7.922-2.365-11.728c-0.69-2.288-3.654-3.711-5.178-3.07c-2.459,1.034-2.296,3.182-2.025,5.339
		c0.446,3.55-0.483,5.041-3.965,4.929c-6.771-0.22-11.605-2.295-13.993-8.598c-1.072-2.829-1.525-5.888-2.385-8.806
		c-0.233-0.794-0.839-1.983-1.416-2.072c-1.546-0.242-4.263-0.499-4.572,0.162c-1.38,2.938-3.248,6.385-2.776,9.299
		c0.941,5.811,3.942,11.023,8.763,14.814c1.212,0.952,3.126,1.267,3.927,2.423c1.101,1.588,2.405,1.6,3.92,1.711
		c0.866,0.062,1.754,0.177,2.576,0.443C313.39,130.904,315.17,131.6,316.965,132.252 M300.895,85.35
		c-4.296-0.057-6.925,1.215-8.393,4.28c-0.324,0.678-0.261,1.876,0.138,2.511c2.063,3.291,8.012,4.425,11.387,2.306
		c2.16-1.357,2.382-3.021,0.687-4.95c-0.683-0.778-1.277-1.635-1.983-2.39C301.991,86.319,301.168,85.609,300.895,85.35
		 M321.524,83.78c0.041-2.098-1.854-3.997-3.671-2.936c-2.044,1.195-3.955,2.775-5.528,4.54c-0.643,0.72-0.571,2.462-0.241,3.566
		c0.374,1.255,1.315,2.383,2.164,3.442c1.259,1.572,2.79,2.189,4.893,1.437c2.037-0.73,2.699-2.173,2.703-4.062
		C321.848,87.926,321.657,86.083,321.524,83.78"/>
	<path d="M316.965,132.251c-1.795-0.651-3.575-1.348-5.391-1.935c-0.822-0.265-1.71-0.38-2.576-0.443
		c-1.515-0.11-2.819-0.123-3.92-1.711c-0.801-1.156-2.715-1.471-3.926-2.423c-4.821-3.791-7.822-9.003-8.764-14.814
		c-0.472-2.913,1.396-6.361,2.776-9.299c0.31-0.661,3.026-0.403,4.572-0.162c0.577,0.09,1.183,1.278,1.416,2.072
		c0.859,2.918,1.313,5.978,2.385,8.807c2.388,6.303,7.222,8.378,13.993,8.597c3.481,0.113,4.412-1.378,3.965-4.928
		c-0.271-2.157-0.434-4.306,2.025-5.34c1.524-0.641,4.487,0.782,5.178,3.07c1.147,3.806,1.765,7.785,2.365,11.729
		c0.103,0.669-0.89,1.633-1.559,2.269C326.909,130.214,323.066,131.404,316.965,132.251"/>
	<path d="M300.895,85.35c0.273,0.259,1.097,0.969,1.835,1.757c0.706,0.755,1.301,1.612,1.984,2.389
		c1.694,1.929,1.473,3.593-0.688,4.951c-3.375,2.119-9.324,0.985-11.387-2.306c-0.398-0.636-0.462-1.833-0.138-2.512
		C293.97,86.565,296.599,85.292,300.895,85.35"/>
	<path d="M321.524,83.78c0.133,2.303,0.323,4.146,0.319,5.987c-0.004,1.889-0.666,3.332-2.703,4.062
		c-2.103,0.753-3.634,0.135-4.893-1.437c-0.849-1.059-1.79-2.188-2.164-3.442c-0.33-1.104-0.401-2.846,0.241-3.566
		c1.573-1.765,3.484-3.345,5.528-4.54C319.67,79.783,321.565,81.682,321.524,83.78"/>
</g>
</svg>
