<?xml version="1.0" encoding="utf-8"?>
<!-- Generator: Adobe Illustrator 16.0.0, SVG Export Plug-In . SVG Version: 6.00 Build 0)  -->
<!DOCTYPE svg PUBLIC "-//W3C//DTD SVG 1.1//EN" "http://www.w3.org/Graphics/SVG/1.1/DTD/svg11.dtd">
<svg version="1.1" id="Layer_1" xmlns="http://www.w3.org/2000/svg" xmlns:xlink="http://www.w3.org/1999/xlink" x="0px" y="0px"
	 width="486.452px" height="90.323px" viewBox="0 0 486.452 90.323" enable-background="new 0 0 486.452 90.323"
	 xml:space="preserve">
<path d="M67.558,30.769c-2.282-0.557-3.985,0.406-4.797,2.715c-0.611,1.737-0.999,3.658-1.122,5.554
	c-0.315,4.852-0.546,9.661-0.789,14.753c-0.093,1.941-0.188,3.909-0.288,5.915l-0.022,0.423l-0.352-0.233
	c-0.954-0.629-1.857-1.245-2.73-1.842c-1.81-1.238-3.521-2.407-5.296-3.417c-5.233-2.975-11.547-7.45-13.96-15.719
	c-0.295-1.01-1.006-1.854-1.951-2.314c-0.94-0.458-2.037-0.5-3.009-0.112c-1.697,0.675-3.399,1.996-4.441,3.45
	c-0.984,1.372-1.746,2.949-2.483,4.475c-0.466,0.965-0.948,1.962-1.485,2.908c-1.522,2.681-3.097,5.329-4.765,8.133
	c-0.732,1.229-1.48,2.488-2.249,3.793l-0.309,0.523l-0.135-0.593c-0.081-0.354-0.145-0.601-0.193-0.781
	c-0.076-0.292-0.114-0.438-0.103-0.603l0.432-5.723c0.606-8.036,1.232-16.347,1.895-24.517c0.2-2.479-1.086-4.576-3.202-5.219
	c-2.282-0.692-3.635,0.17-4.535,2.881c-0.897,2.703-1.459,5.274-1.67,7.64C9.524,38.21,9.105,43.45,9.191,48.714
	c0.074,4.502,0.298,10.411,1.382,16.196c0.382,2.045,1.297,3.456,2.644,4.08c1.485,0.688,3.478,0.395,5.615-0.822
	c3.418-1.947,6.211-4.927,8.538-9.107c0.823-1.477,1.606-3.011,2.362-4.494c0.507-0.991,1.012-1.983,1.533-2.967
	c0.717-1.353,1.327-2.224,2.155-2.388c0.095-0.019,0.19-0.027,0.287-0.027c0.759,0,1.599,0.561,2.668,1.446
	c0.565,0.469,1.116,0.97,1.649,1.454c0.753,0.686,1.531,1.394,2.351,2.009c1.574,1.181,3.141,2.37,4.708,3.56
	c4.746,3.601,9.651,7.323,14.655,10.716c2.116,1.436,4.143,1.826,5.708,1.101c1.645-0.764,2.713-2.694,3.007-5.44
	c1.009-9.423,1.918-18.855,2.835-28.494C71.557,32.718,70.616,31.515,67.558,30.769"/>
<path d="M384.548,47.805c-4.006-1.263-8.332-1.57-13.229-0.942c-0.966,0.125-2.739-0.287-3.111-1.091
	c-0.548-1.178-0.198-2.855,0.06-3.75c0.252-0.877,1.002-1.616,1.813-2.359c3.851-3.522,10.487-4.27,15.113-1.702
	c0.242,0.136,0.483,0.278,0.726,0.422c0.783,0.464,1.592,0.944,2.425,1.112c0.844,0.173,2.131-0.011,2.587-0.513
	c0.452-0.499,0.492-1.84,0.208-2.588c-1.11-2.921-3.29-4.781-6.304-5.379c-1.394-0.275-2.845-0.417-4.249-0.553
	c-0.645-0.063-1.29-0.126-1.935-0.201l-0.141-0.017l-0.175-0.431c-1.04,0.284-2.106,0.541-3.141,0.79
	c-2.468,0.594-5.021,1.208-7.332,2.233c-4.264,1.891-7.041,5.366-7.822,9.788c-0.619,3.509,0.197,6.575,2.302,8.633
	c2.253,2.205,5.817,3.019,9.775,2.231c6.551-1.302,12.252,0.578,17.937,5.921c0.958,0.899,1.486,1.942,1.489,2.935
	c0.003,0.839-0.368,1.637-1.073,2.308l-0.111,0.104c-2.123,2.02-4.318,4.109-6.918,5.206c-3.811,1.607-7.744,0.808-12.38-2.517
	c-2.176-1.561-4.379-2.824-6.547-3.755c-0.324-0.139-0.639-0.209-0.939-0.209c-0.258,0-0.507,0.052-0.744,0.154
	c-0.646,0.279-1.187,0.944-1.522,1.873c-1.148,3.166,0.139,5.891,3.441,7.288c0.977,0.413,2.009,0.767,3.006,1.108
	c1.629,0.558,3.313,1.135,4.821,1.991c10.241,5.821,19.227,0.747,24.96-4.536c3.479-3.203,4.019-7.508,1.482-11.808
	C395.565,53.697,390.695,49.744,384.548,47.805"/>
<path d="M166.218,70.622c-4.665-2.826-7.765-6.815-9.48-12.195c-0.71-2.229-1.744-4.405-2.745-6.51
	c-0.211-0.443-0.421-0.886-0.629-1.328c-1.122-2.396-2.357-4.793-3.549-7.109l-0.392-0.761c-0.3-0.583-0.605-1.132-1.033-1.427
	c-4.119-2.848-8.185-4.125-12.436-3.923c-0.597,0.038-1.195,0.074-1.792,0.109c-1.303,0.078-2.652,0.158-3.973,0.266
	c-6.271,0.513-10.056,3.371-11.57,8.739c-0.704,2.491-1.392,5.175-1.656,7.921c-0.468,4.85,0.887,9.126,3.815,12.042
	c2.772,2.761,6.74,4.032,11.171,3.589c6.738-0.679,11.143-3.065,13.862-7.511c0.414-0.677,1.084-1.183,1.731-1.674
	c0.287-0.216,0.585-0.442,0.849-0.675l0.197-0.174l0.157,0.21c0.226,0.305,0.468,0.602,0.712,0.898
	c0.533,0.652,1.084,1.326,1.463,2.086c0.741,1.481,1.45,3.008,2.134,4.484c1.135,2.445,2.308,4.974,3.654,7.346
	c0.865,1.525,2.431,3.059,4.298,4.208c0.879,0.541,1.943,0.67,3.078,0.374c1.779-0.463,3.48-1.882,4.548-3.795
	C169.811,73.705,169.224,72.444,166.218,70.622 M146.606,53.739l-0.104,0.071c-0.932,0.646-1.834,1.291-2.722,1.927
	c-2.022,1.447-3.932,2.815-5.974,4.011c-2.159,1.263-5.02,2.815-8.014,3.62c-0.531,0.143-1.042,0.214-1.527,0.214
	c-0.814,0-1.553-0.2-2.181-0.597c-1.055-0.666-1.766-1.849-2.056-3.423c-1.001-5.421-0.095-9.273,2.85-12.123
	c3.269-3.161,7.608-4.131,12.549-2.803c4.05,1.089,7.203,5.031,7.18,8.977L146.606,53.739z"/>
<path d="M287.934,36.788c-2.021-0.238-4.112-0.122-5.911,0.007c-1.188,0.085-2.392,0.302-3.556,0.511
	c-0.528,0.095-1.057,0.19-1.586,0.274l-0.243,0.038l-0.033-0.243c-0.077-0.55-0.174-1.099-0.271-1.648
	c-0.218-1.226-0.442-2.494-0.428-3.749c0.007-0.518,0.001-1.047-0.005-1.58c-0.023-2.245-0.049-4.567,0.813-6.477
	c1.837-4.067,1.299-6.327-2.302-9.674c-1.741-1.614-3.278-1.995-4.989-1.233c-1.963,0.875-2.128,2.586-2.13,4.412
	c-0.006,3.692-0.004,7.385-0.003,11.077l0.018,4.095l0.478,0.004l0.056,0.606c0.025,0.273,0.052,0.547,0.067,0.821
	c0.124,2.135-0.155,3.333-0.933,4.004c-0.786,0.679-2.039,0.778-4.196,0.332c-1.673-0.347-3.137-0.57-4.475-0.686
	c-0.134-0.012-0.264-0.017-0.393-0.017c-1.513,0-2.639,0.804-3.351,2.396c-0.687,1.534-0.375,2.909,0.978,4.328
	c2.182,2.288,5.042,2.614,7.784,2.753c3.283,0.166,4.068,0.869,4.424,3.957c0.185,1.611,0.345,3.253,0.5,4.841
	c0.283,2.889,0.575,5.877,1.024,8.786c0.59,3.814,1.422,7.589,2.473,11.221c0.418,1.449,1.064,2.389,1.971,2.871
	c0.938,0.499,2.145,0.5,3.686,0.004c2.989-0.962,4.043-3.146,3.314-6.872c-1.541-7.879-3.06-15.729-4.513-23.33
	c-0.292-1.527-0.001-2.797,0.821-3.574c0.814-0.771,2.089-0.99,3.59-0.617c1.097,0.273,2.125,0.842,3.119,1.391
	c0.271,0.149,0.54,0.298,0.811,0.44c2.064,1.092,4.113,0.851,6.262-0.736c1.651-1.219,2.254-2.628,1.844-4.305
	C292.01,38.607,290.38,37.077,287.934,36.788"/>
<path d="M191.218,36.874c-3.712-0.264-7.484,0.005-10.685,0.302c-1.649,0.152-2.668,0.13-3.323-0.435
	c-0.644-0.554-0.828-1.575-0.906-2.938c-0.057-0.98-0.023-1.979,0.011-2.942c0.015-0.471,0.031-0.941,0.038-1.412
	c0.018-1.506,0.047-3.011,0.075-4.517c0.067-3.558,0.136-7.236,0.083-10.851c-0.022-1.584-0.45-2.764-1.272-3.508
	c-0.739-0.67-1.764-0.955-3.055-0.846c-2.569,0.216-4.22,2.395-4.309,5.685c-0.174,6.429-0.208,12.254-0.102,17.811l0.004,0.22
	c0.082,4.263-0.038,4.398-4.288,4.846c-1.618,0.17-2.954,1.017-3.57,2.265c-0.551,1.112-0.461,2.415,0.245,3.573
	c1.082,1.776,2.83,1.696,4.679,1.445c0.565-0.078,1.081-0.128,1.545-0.128c0.769,0,1.395,0.138,1.863,0.517
	c0.636,0.515,0.948,1.425,1.077,3.143c0.375,5.009,0.722,10.104,1.057,15.032c0.269,3.965,0.539,7.931,0.825,11.895
	c0.088,1.22,0.308,2.176,0.669,2.923c0.681,1.406,2.033,3.001,4.61,2.622c1.971-0.291,3.373-2.035,3.407-4.24
	c0.026-1.718-0.106-3.431-0.251-5.026c-0.609-6.664-1.234-13.327-1.866-20.074l-0.672-7.166l0.215-0.041
	c0.801-0.152,1.593-0.325,2.361-0.493c1.845-0.403,3.588-0.783,5.379-0.883c1.546-0.086,3.382,0.447,4.555,1.331
	c2.622,1.972,4.48,1.876,6.63-0.338c0.857-0.881,1.29-2.016,1.193-3.111c-0.087-0.969-0.591-1.828-1.418-2.422
	C194.654,38.13,192.872,36.991,191.218,36.874"/>
<path d="M473.201,27.62c-2.19-0.063-4.437,0.101-6.606,0.26c-0.826,0.061-1.653,0.121-2.479,0.17
	c-1.749,0.102-2.715-0.097-3.327-0.688c-0.601-0.579-0.839-1.539-0.798-3.209c0.027-1.146,0.103-2.311,0.176-3.437
	c0.121-1.867,0.247-3.799,0.155-5.682c-0.113-2.313-0.583-4.804-1.359-7.206c-0.702-2.171-3.434-3.31-5.408-2.878
	c-2.285,0.5-2.456,2.218-2.436,4.243c0.049,4.901,0.083,9.803,0.117,14.705c0.021,3.075-0.402,3.524-3.484,3.691
	c-1.314,0.071-2.7,0.202-3.924,0.676c-1.854,0.72-2.759,2.272-2.688,4.618c0.052,1.72,1.05,2.791,2.969,3.181
	c1.474,0.3,3,0.396,4.412,0.279c1.453-0.119,2.432,0.104,3.08,0.708c0.623,0.58,0.92,1.523,0.905,2.882
	c-0.038,3.521-0.03,7.101-0.022,10.563c0.003,1.46,0.007,2.918,0.007,4.378v0.239l-0.256,0.002
	c-0.001,1.241-0.006,2.483-0.011,3.726c-0.012,3.049-0.023,6.202,0.03,9.302c0.049,2.851,1.033,4.137,3.508,4.585
	c1.733,0.315,3.165,0.035,4.143-0.805c1.045-0.899,1.567-2.432,1.51-4.432c-0.161-5.603-0.381-11.298-0.594-16.806
	c-0.146-3.798-0.293-7.597-0.423-11.395c-0.054-1.582,0.039-2.673,0.669-3.226c0.639-0.562,1.742-0.509,3.431-0.229
	c0.793,0.132,1.586,0.276,2.378,0.421c1.934,0.354,3.933,0.719,5.909,0.875c1.596,0.126,2.789-0.147,3.547-0.814
	c0.641-0.564,0.995-1.436,1.051-2.59c0.114-2.354-0.271-3.974-1.177-4.952C475.521,28.037,474.539,27.659,473.201,27.62"/>
<path d="M437.811,40.764c0.533-3.299-0.01-5.741-1.761-7.921c-1.359-1.694-2.58-2.236-4.078-1.809
	c-1.948,0.552-3.145,1.945-3.371,3.921c-0.162,1.416-0.109,2.901-0.028,4.295c0.233,3.97,0.498,8.005,0.754,11.907l0.299,4.581
	l-0.864,0.474l-0.128-0.12c-0.195-0.182-0.396-0.36-0.598-0.539c-0.434-0.385-0.883-0.782-1.274-1.227l-2.663-3.03
	c-4.082-4.639-8.303-9.436-12.38-14.218c-1.554-1.82-2.948-2.831-5.104-2.239c-1.971,0.541-2.624,2.073-2.998,4.209
	c-0.058,0.331-0.106,0.629-0.116,0.923c-0.239,8.193-0.271,17.853,1.32,27.364c0.434,2.596,1.822,3.587,4.493,3.204
	c2.606-0.371,3.867-2.009,3.551-4.611c-0.164-1.352-0.332-2.702-0.499-4.053c-0.38-3.056-0.771-6.215-1.115-9.329
	c-0.06-0.532,0.046-1.069,0.168-1.691c0.06-0.31,0.126-0.646,0.179-1.019l0.057-0.407l0.328,0.248
	c0.247,0.187,0.44,0.324,0.597,0.435c0.262,0.187,0.435,0.309,0.576,0.47c1.653,1.874,3.303,3.75,4.954,5.627
	c3.022,3.438,6.148,6.993,9.243,10.471c1.136,1.277,2.125,2.206,3.112,2.923c2.266,1.646,4.508,1.729,6.668,0.25
	c1.74-1.195,2.235-2.854,1.648-5.549C436.936,55.835,436.62,48.135,437.811,40.764"/>
<path d="M112.127,51.264c-0.129-0.784-0.259-1.569-0.395-2.354c-1.197-6.875-4.483-9.602-11.718-9.723l-0.238-0.003
	c-2.924-0.05-5.949-0.099-8.908,0.065c-1.63,0.091-3.375,0.444-5.049,1.02c-1.346,0.463-2.38,0.676-3.053,0.214
	c-0.683-0.471-0.855-1.531-0.903-2.977c-0.021-0.647-0.026-1.299-0.032-1.949c-0.015-1.646-0.03-3.347-0.311-4.963
	c-0.203-1.152-0.94-2.022-1.974-2.327c-1.085-0.317-2.236,0.034-3.08,0.947c-0.707,0.767-1.227,1.896-1.291,2.809
	c-0.666,9.428-1.309,19.571-1.965,31.008c-0.115,2.017,0.917,3.065,3.155,3.206c2.932,0.188,4.31-0.732,4.457-2.978
	c0.295-4.493,0.374-8.209,0.249-11.697c-0.123-3.443,1.436-5.336,4.633-5.624c1.57-0.143,3.169-0.249,4.716-0.353
	c0.755-0.051,1.511-0.102,2.266-0.156h0.016l1.63-0.006c0.669-0.003,1.35-0.005,2.033-0.005c0.709,0,1.423,0.003,2.131,0.012
	c3.553,0.047,5.488,1.734,6.094,5.313c0.119,0.705,0.236,1.413,0.352,2.121c0.346,2.103,0.704,4.277,1.146,6.394l0.237,1.149
	c0.51,2.478,1.036,5.039,1.901,7.422c0.337,0.927,0.977,1.622,1.853,2.01c1.205,0.533,2.816,0.462,4.417-0.197
	c1.134-0.466,1.837-1.063,2.09-1.773c0.226-0.637,0.1-1.402-0.375-2.274C113.746,61.065,112.923,56.083,112.127,51.264"/>
<path d="M241.569,53.892l0.015-0.185c0.19-2.467,0.352-5.085,0.05-7.587c-0.091-0.765-0.507-1.457-1.203-2.003
	c-0.984-0.771-2.432-1.147-3.778-0.983c-1.94,0.236-2.965,1.384-3.131,3.507c-0.293,3.748-0.598,7.495-0.899,11.242l-0.369,4.574
	l0.281,0.015v0.229c0,0.64-0.019,1.282-0.038,1.924c-0.042,1.423-0.085,2.894,0.092,4.304c0.288,2.304,0.805,4.389,1.534,6.195
	c0.947,2.343,3.438,3.033,6.501,1.802c2.381-0.956,3.115-2.223,2.381-4.105C240.585,66.612,241.085,60.145,241.569,53.892"/>
<path d="M345.433,50.496c-0.18-1.572-1.023-2.804-2.258-3.292c-1.08-0.429-2.258-0.2-3.232,0.627
	c-0.832,0.705-1.511,1.894-1.651,2.889c-0.437,3.109-0.744,6.293-1.042,9.371c-0.104,1.082-0.209,2.164-0.319,3.245l0.377,0.029
	v0.224c0,0.923-0.01,1.846-0.021,2.769c-0.021,2.097-0.044,4.264,0.054,6.387c0.104,2.251,1.893,3.698,4.563,3.698h0.061
	c2.537-0.021,3.851-1.215,4.019-3.651c0.042-0.612,0.088-1.226,0.135-1.839c0.181-2.394,0.368-4.87,0.291-7.289
	C346.274,59.414,345.946,54.984,345.433,50.496"/>
<path d="M239.905,28.29c1.17-1.836,1.178-3.47,0.021-4.856c-1.924-2.307-4.453-3.617-7.52-3.894
	c-0.113-0.011-0.225-0.016-0.332-0.016c-1.29,0-2.097,0.743-2.46,2.26c-0.481,2.007-0.06,4.063,1.188,5.788
	c1.378,1.909,3.575,3.133,6.04,3.368c0.319-0.262,0.663-0.51,0.995-0.75C238.655,29.597,239.428,29.039,239.905,28.29"/>
<path d="M340.643,26.188c-0.038,0-0.076,0-0.115,0.001c-0.93,0.015-1.687,0.318-2.249,0.903c-0.8,0.831-1.2,2.242-1.157,4.081
	c0.072,3.2,2.449,5.337,5.923,5.337h0.075c2.55-0.023,3.943-1.421,3.924-3.937c-0.014-1.788-0.688-3.424-1.898-4.605
	C343.966,26.817,342.372,26.188,340.643,26.188"/>
</svg>
